<?xml version="1.0" encoding="UTF-8"?>
<svg id="_Шар_1" data-name="Шар 1" xmlns="http://www.w3.org/2000/svg" viewBox="0 0 318.8 228.53">
  <defs>
    <style>
      .cls-1 {
        fill: #0d3f24;
      }
    </style>
  </defs>
  <g>
    <path d="M24.72,172.37c.23.71.74,1.07,1.55,1.07.71,0,1.18-.29,1.41-.87l9.01-25.63h.44l-9.06,25.72c-.26.74-.65,1.28-1.16,1.62-.52.34-1.21.51-2.08.51-1.71,0-2.83-.71-3.34-2.13l-9.11-25.72h1.41c1.26,0,2.11.61,2.57,1.84l8.38,23.59Z"/>
    <path d="M40.03,146.94h1.21c1.29,0,1.94.65,1.94,1.94v25.68h-1.21c-1.29,0-1.94-.65-1.94-1.94v-25.68Z"/>
    <path d="M47.54,146.94h1.21c1.29,0,1.94.65,1.94,1.94v11.19c1.16-.13,2.15-.54,2.96-1.24.81-.69,1.53-1.53,2.18-2.5.65-.97,1.28-2.01,1.91-3.12s1.36-2.13,2.18-3.05,1.8-1.69,2.93-2.3c1.13-.61,2.54-.92,4.21-.92v.1c-.71.1-1.38.48-2.01,1.14-.63.66-1.28,1.46-1.94,2.4-.66.94-1.36,1.94-2.08,3-.73,1.07-1.54,2.07-2.45,3-.9.94-1.92,1.74-3.05,2.42-1.13.68-2.42,1.08-3.88,1.21,1.45.16,2.75.61,3.88,1.33,1.13.73,2.15,1.6,3.05,2.62.9,1.02,1.72,2.11,2.45,3.27s1.42,2.25,2.08,3.25c.66,1,1.31,1.86,1.94,2.57.63.71,1.3,1.11,2.01,1.21v.1c-1.68,0-3.08-.33-4.21-.99-1.13-.66-2.11-1.5-2.93-2.52-.82-1.02-1.55-2.11-2.18-3.29-.63-1.18-1.27-2.29-1.91-3.34-.65-1.05-1.37-1.95-2.18-2.71-.81-.76-1.79-1.2-2.96-1.33v14.19h-1.21c-1.29,0-1.94-.65-1.94-1.94v-25.68Z"/>
    <path d="M77.14,147.33h-8.62v-.39h20.4v.39h-8.62v27.23h-1.21c-1.29,0-1.94-.65-1.94-1.94v-25.29Z"/>
    <path d="M88.91,160.65c0-4.52,1.22-7.98,3.66-10.39,2.44-2.41,5.92-3.61,10.44-3.61s7.99,1.2,10.39,3.61c2.41,2.41,3.61,5.87,3.61,10.39s-1.2,8.02-3.61,10.49c-2.41,2.47-5.87,3.71-10.39,3.71s-8-1.24-10.44-3.71c-2.44-2.47-3.66-5.97-3.66-10.49ZM92.06,160.65c0,4.39.92,7.79,2.76,10.2,1.84,2.41,4.57,3.61,8.19,3.61s6.33-1.2,8.14-3.61c1.81-2.41,2.71-5.81,2.71-10.2s-.9-7.72-2.71-10.08c-1.81-2.36-4.52-3.54-8.14-3.54s-6.35,1.18-8.19,3.54c-1.84,2.36-2.76,5.72-2.76,10.08Z"/>
    <path d="M129.46,161.57c1.45-.35,2.53-1.19,3.22-2.49.69-1.31,1.04-2.88,1.04-4.72,0-2.42-.61-4.2-1.82-5.33-1.21-1.13-3.14-1.7-5.79-1.7h-1.36c-.81,0-1.21.4-1.21,1.21v11.82c1.61,0,3.03.33,4.24.99,1.21.66,2.29,1.49,3.22,2.49.94,1,1.77,2.1,2.5,3.29.73,1.2,1.41,2.32,2.04,3.37.63,1.05,1.26,1.95,1.89,2.69.63.74,1.3,1.16,2.01,1.26v.1c-1.68,0-3.08-.33-4.19-.99-1.11-.66-2.07-1.49-2.86-2.5-.79-1-1.48-2.08-2.06-3.25s-1.18-2.27-1.79-3.32c-.61-1.05-1.31-1.95-2.08-2.69-.77-.74-1.74-1.18-2.91-1.31v14.05h-1.21c-1.29,0-1.94-.65-1.94-1.94v-23.74c0-1.29.65-1.94,1.94-1.94h3.78c3.58,0,6.27.69,8.07,2.08,1.79,1.39,2.69,3.17,2.69,5.33,0,1.94-.65,3.58-1.94,4.94-1.29,1.36-3.1,2.15-5.43,2.37l-.05-.1Z"/>
    <path d="M141.14,146.94h1.21c1.29,0,1.94.65,1.94,1.94v25.68h-1.21c-1.29,0-1.94-.65-1.94-1.94v-25.68Z"/>
    <path d="M162.84,159.15v.39h-9.83c-.81,0-1.21.4-1.21,1.21v12.21c0,.81.4,1.21,1.21,1.21h11.29v.39h-13.71c-1.29,0-1.94-.65-1.94-1.94v-23.74c0-1.29.65-1.94,1.94-1.94h13.71v.39h-11.29c-.81,0-1.21.4-1.21,1.21v9.4c0,.81.4,1.21,1.21,1.21h9.83Z"/>
    <path d="M179.31,146.94h1.21c1.29,0,1.94.65,1.94,1.94v13.56c.61,0,1.15-.09,1.62-.27.47-.18.93-.4,1.38-.65.45-.26.94-.55,1.45-.87.52-.32,1.15-.61,1.89-.87.74-.26,1.62-.48,2.64-.65,1.02-.18,2.25-.27,3.71-.27v-11.92h1.21c1.29,0,1.94.65,1.94,1.94v25.68h-1.21c-1.29,0-1.94-.65-1.94-1.94v-13.47c-.9,0-1.67.19-2.3.56-.63.37-1.36.78-2.18,1.24-.82.45-1.86.86-3.1,1.24-1.24.37-2.95.56-5.11.56v11.82h-1.21c-1.29,0-1.94-.65-1.94-1.94v-25.68Z"/>
    <path d="M201.69,160.65c0-4.52,1.22-7.98,3.66-10.39,2.44-2.41,5.92-3.61,10.44-3.61s7.99,1.2,10.39,3.61c2.41,2.41,3.61,5.87,3.61,10.39s-1.2,8.02-3.61,10.49c-2.41,2.47-5.87,3.71-10.39,3.71s-8-1.24-10.44-3.71c-2.44-2.47-3.66-5.97-3.66-10.49ZM204.84,160.65c0,4.39.92,7.79,2.76,10.2,1.84,2.41,4.57,3.61,8.19,3.61s6.33-1.2,8.14-3.61c1.81-2.41,2.71-5.81,2.71-10.2s-.9-7.72-2.71-10.08c-1.81-2.36-4.52-3.54-8.14-3.54s-6.35,1.18-8.19,3.54c-1.84,2.36-2.76,5.72-2.76,10.08Z"/>
    <path d="M242.92,160.79c-.65-2.45-1.23-4.49-1.74-6.1-.52-1.61-1-2.91-1.45-3.88-.45-.97-.88-1.65-1.28-2.06-.4-.4-.82-.61-1.24-.61-.74,0-1.11.37-1.11,1.11v25.29h-1.21c-1.29,0-1.94-.65-1.94-1.94v-23.01c0-.97.25-1.7.75-2.2.5-.5,1.19-.75,2.06-.75.74,0,1.42.21,2.03.63.61.42,1.21,1.16,1.79,2.23.58,1.07,1.17,2.5,1.77,4.31.6,1.81,1.25,4.1,1.96,6.88.65,2.42,1.24,4.45,1.77,6.08.53,1.63,1.03,2.93,1.48,3.9.45.97.89,1.66,1.31,2.06.42.4.82.61,1.21.61.71,0,1.07-.37,1.07-1.11v-25.29h1.21c1.29,0,1.94.65,1.94,1.94v23.01c0,.97-.25,1.7-.75,2.2-.5.5-1.19.75-2.06.75-.77,0-1.47-.22-2.08-.65s-1.2-1.19-1.77-2.25c-.57-1.07-1.14-2.5-1.72-4.31-.58-1.81-1.24-4.08-1.99-6.83Z"/>
    <path d="M270.09,174.84c-4.36,0-7.73-1.24-10.1-3.71-2.37-2.47-3.56-5.97-3.56-10.49s1.17-7.98,3.51-10.39c2.34-2.41,5.72-3.61,10.15-3.61,3.39,0,6.14.71,8.24,2.13,2.1,1.42,3.52,3.52,4.26,6.3h-.58c-.61-2.52-1.88-4.47-3.8-5.86-1.92-1.39-4.35-2.08-7.29-2.08-3.71,0-6.53,1.14-8.45,3.42s-2.88,5.64-2.88,10.1.97,7.9,2.91,10.22c1.94,2.33,4.73,3.49,8.38,3.49,2.91,0,5.34-.71,7.29-2.13,1.95-1.42,3.24-3.42,3.85-6.01h.58c-.74,2.81-2.18,4.95-4.31,6.42-2.13,1.47-4.86,2.2-8.19,2.2Z"/>
    <path d="M285.98,146.94h1.21c1.29,0,1.94.65,1.94,1.94v13.56c.61,0,1.15-.09,1.62-.27.47-.18.93-.4,1.38-.65.45-.26.94-.55,1.45-.87.52-.32,1.15-.61,1.89-.87.74-.26,1.62-.48,2.64-.65,1.02-.18,2.25-.27,3.71-.27v-11.92h1.21c1.29,0,1.94.65,1.94,1.94v25.68h-1.21c-1.29,0-1.94-.65-1.94-1.94v-13.47c-.9,0-1.67.19-2.3.56-.63.37-1.36.78-2.18,1.24-.82.45-1.86.86-3.1,1.24-1.24.37-2.95.56-5.11.56v11.82h-1.21c-1.29,0-1.94-.65-1.94-1.94v-25.68Z"/>
  </g>
  <g>
    <path class="cls-1" d="M173.19,50.32c.15.16-.07.18-.13.23-4.09,3.51-9.08,6.47-13.21,9.99-2.55,2.17-5.91,6.43-6.11,9.86-.04.7-.02,1.45.1,2.14l.59-.65c1.2-.97,3.44-.11,4.51.75,1.24,1,1.78,1.69.45,2.93-.2.18-1.22.88-1.27.96-.21.37.11,1.61.5,1.9,1.24.91,3.57-.53,4.63-1.28,2.82-2.01,4.45-5.25,5.51-8.47l.74-2.97c.67,3.45.15,6.84-1.57,9.89-1.27,2.25-3.25,4.05-5.17,5.74.89.92,2.39,1.47,1.73,3.03-.34.81-1.56.96-1.62,1.15,0,.97,0,1.89-.13,2.85-.22,1.64-1.05,3.08-.89,4.78l.03.12c.76.5,1.41,1.14,2.11,1.7,2.51,2.01,5.32,3.6,6.69,6.7-2.13,3.39-4.77,6.43-7.06,9.7-3.98,5.7-6.88,11.17-11.73,16.34-.81.86-1.69,1.65-2.53,2.48.66-.23,1.29-.58,1.88-.95,4.25-2.64,8.02-7.04,10.66-11.26.77-1.23,1.37-2.64,2.12-3.83.05-.09.09-.22.22-.23.97,3.53,3.12,6.76,5.85,9.18,3.96,3.51,9.07,4.53,13.94,6.09,4.36,1.4,8.9,3.37,12.94,5.51.86.45,1.85.94,2.58,1.54l-80.34.1,4.16-2.33c6.28-3.21,13.14-5.01,19.74-7.44,9.1-3.35,13.56-13.32,12.6-22.61-.32-3.06-2.28-8.03-1.62-10.74.61-2.51,3.06-3.16,2.91-5.83-.2-3.62-3.16-5.83-4.84-8.74-6.75-11.67,2.51-20.95,12.31-26.13,1.95-1.03,4.97-2.63,7.16-2.46.2.02,1.48.24,1.54.3ZM165.75,101.3c-1.69-.59-3.78-1.17-5.33-2.06-1-.58-1.93-1.54-2.81-2.3.51,1.19,1.6,2.35,2.71,2.99.27.16,1.39.59,1.44.74.08,2.87-.12,5.72-.48,8.56l2.89-4.79c.16-.43,1.74-2.94,1.57-3.14Z"/>
    <path class="cls-1" d="M178.34,35.34c.07,1.6-.07,3.2-.59,4.71-1.71,4.91-7.16,7.75-12.1,8.18,1-5.36,4.63-10.44,9.87-12.3.89-.32,1.87-.64,2.83-.59Z"/>
    <path class="cls-1" d="M134.01,40.4c4.84,0,8.69,2.13,11.15,6.26.27.46,1.67,3.23,1.5,3.56-.05.1-.24.21-.35.25-1,.39-4.46-.57-5.52-1.03-3.81-1.64-6.21-4.93-6.78-9.04Z"/>
    <path class="cls-1" d="M150.76,45.84c-6.03-.44-10.04-5.77-9.51-11.69,1.94.36,3.83,1.07,5.4,2.29,2.77,2.14,4.55,5.9,4.11,9.41Z"/>
    <path class="cls-1" d="M186.38,40.4c-.25,2.4-1.63,5.1-3.42,6.74-2.08,1.91-4.88,2.67-7.64,2.87-.08.02-.24-.1-.24-.14v-1.49c0-1.23,2.07-4,2.97-4.86,1.2-1.15,4.55-3.12,6.2-3.12h2.13Z"/>
    <path class="cls-1" d="M177.75,52.7c-.02.71.03,1.42,0,2.13-.08,1.61-.34,2.53-1.14,3.92-1.61,2.8-4.47,4.68-7.69,5.06-.15-2.59.27-5.03,1.84-7.13,1.7-2.27,4.23-3.48,6.98-3.98Z"/>
    <path class="cls-1" d="M150.27,64c-1.38-.15-2.85-.78-4.03-1.47-3.56-2.08-5.14-5.77-4.59-9.84.58.24,1.19.31,1.81.52,2.37.82,4.89,2.78,5.91,5.1.3.68.91,2.47.91,3.16v2.53Z"/>
    <path class="cls-1" d="M127.24,47.27c1.05-.09,2.38-.08,3.41.1,3.29.58,5.79,3.18,7.22,6.07-.03.12-.97.42-1.15.44-4.06.57-7.81-.41-10.51-3.56-.29-.34-1.49-2.01-1.52-2.35-.02-.2.17-.21.31-.26.52-.2,1.67-.39,2.24-.44Z"/>
    <path class="cls-1" d="M187.27,95.25c-.38,0-.76-.01-1.14,0-1.77.05-3.26-.05-4.94-.72-3.06-1.23-5.1-4.1-5.93-7.22,4.1-.45,8.04.98,10.4,4.43.28.42,1.86,3.25,1.61,3.5Z"/>
    <path class="cls-1" d="M181.32,53.59c1.1-2.63,3.29-4.76,5.95-5.8,1.93-.75,3.85-.67,5.87-.32.25.04,1.53.26,1.57.42-2.63,4.85-8.02,7.16-13.39,5.7Z"/>
    <path class="cls-1" d="M119.41,71.87c2.24-.15,4.92.41,6.76,1.71-1.26,1.3-2.75,2.4-4.43,3.11-2.37,1.01-5.34.84-7.79.18-.35-.09-2.51-.81-2.56-1.02-.04-.19,1.76-1.61,2.05-1.81,1.75-1.23,3.8-2.03,5.96-2.17Z"/>
    <path class="cls-1" d="M204.13,91.97c-2.69.55-5.53.34-7.94-1.04-2.09-1.2-3.66-3.4-4.56-5.6,3.22-.69,6.38-.38,9.06,1.6,1.67,1.24,2.63,3.18,3.44,5.04Z"/>
    <path class="cls-1" d="M127.36,85.13c-1.79,5.33-7.07,7.91-12.5,6.84.99-3.06,3.15-5.47,6.2-6.55,2.12-.75,4.1-.51,6.3-.3Z"/>
    <path class="cls-1" d="M185.39,65.99c-.63.94-1.1,2.24-1.79,3.12-.3.39-1.97,1.95-2.37,2.19-1.46.87-4.81,1.62-6.5,1.53-.28-.01-2.21-.27-2.23-.44,2.09-5.1,7.53-7.77,12.89-6.4Z"/>
    <path class="cls-1" d="M118.73,54.08c2.39-.04,5.23.25,7.23,1.64,2.23,1.55,3.6,4,3.93,6.69-1.22.26-2.64,0-3.85-.33-4.02-1.09-6.39-4.02-7.32-8Z"/>
    <path class="cls-1" d="M143.73,87.31c-1.07,5.38-6.49,8.66-11.8,7.84-.16-.16.65-2.01.81-2.32,1.36-2.65,4.87-5.52,7.97-5.52h3.03Z"/>
    <path class="cls-1" d="M192.82,73.43c2.98-1.55,6.16-2.13,9.42-1.04,1.94.65,3.91,1.83,5.16,3.47-2.6,1.36-5.65,1.71-8.55,1.31-1.95-.27-3.6-1.28-5.04-2.6-.15-.14-1.08-1.01-.99-1.14Z"/>
    <path class="cls-1" d="M200.46,54.28c-1.27,5.17-5.96,8.61-11.31,8.13.59-5.37,5.99-9.32,11.31-8.13Z"/>
    <path class="cls-1" d="M131.43,69.46c-3.18.94-6.69,1.19-9.65-.51-1.63-.94-3.13-2.57-3.74-4.34,2.23-.58,4.69-.72,6.96-.27,2.81.56,5.11,2.64,6.43,5.13Z"/>
    <path class="cls-1" d="M163.36,36.92c.85,2.05,1.52,4.22,1.16,6.47-.5,3.14-3.02,5.5-5.82,6.72-1.16-4.04-.24-8.28,2.48-11.45.58-.67,1.33-1.45,2.18-1.74Z"/>
    <path class="cls-1" d="M146.31,72.43c-2.29.19-4.89.57-7.07-.32-2.72-1.11-4.8-3.52-5.63-6.32l2.04-.2c.59.17,1.18.05,1.77.12,4.09.44,7.19,3.1,8.89,6.73Z"/>
    <path class="cls-1" d="M187.57,69.36c1.88-3.53,5.45-5.52,9.48-5.36.51.02,3.8.47,3.9.85-.19.91-1.14,1.8-1.82,2.43-3.29,2.99-7.39,3.56-11.56,2.08Z"/>
    <path class="cls-1" d="M153.55,30.08c.19-.14,1.75,1.47,1.93,1.68,1.64,1.94,2.62,4.73,2.2,7.26-.09.53-1.08,3.97-1.41,4.04-1.65-1.28-3.44-3.46-3.88-5.54-.57-2.63-.05-5.1,1.16-7.46Z"/>
    <path class="cls-1" d="M186.38,80.57c2.69-1.87,5.61-2.97,8.93-2.24,1.22.27,3.61,1.29,4.51,2.14.58.55-.27.87-.74,1.14-3.49,2.02-8.73,2.29-12-.31-.14-.11-.78-.62-.7-.73Z"/>
    <path class="cls-1" d="M125.46,78.12c1.07-.04,2.54.12,3.55.46,1.2.41,2.42,1.46,3.65,1.9l.16.23c-3.18,2.51-7.34,3.14-11.13,1.62-.38-.15-2.15-1-2.36-1.22-.16-.17-.09-.37.06-.54.17-.19,1.45-.93,1.76-1.11,1.48-.84,2.56-1.28,4.31-1.34Z"/>
    <path class="cls-1" d="M151.17,84.83h-1.64c-.25,0-1.21-.28-1.51-.37-3.51-1.08-6.43-4.56-5.97-8.36,1.02.17,2.04.28,3.03.59,3.08.98,5,3.47,5.75,6.55.13.55.08,1.11.35,1.59Z"/>
    <path class="cls-1" d="M176.96,76.3c-.33,4.83-4.25,8.66-9.13,8.63.12-2.06.75-4.64,2.28-6.1,1.89-1.81,4.21-2.67,6.85-2.53Z"/>
    <path class="cls-1" d="M191.24,74.72c-3.23,3.67-8.22,4.85-12.7,2.68-.04-.15.04-.16.1-.25.52-.75,2.99-2.97,3.8-3.34,1.28-.59,3.58-.66,4.96-.46s2.54.77,3.83,1.38Z"/>
    <path class="cls-1" d="M138.62,63.9c-3.02-.34-5.22-2.49-6.34-5.16-.12-.28-.85-2.11-.84-2.23s.23-.14.34-.15c4.52-.48,8.16,2.22,9.25,6.53.04.17.31,1.01.08,1.01-.76,0-1.76.08-2.48,0Z"/>
    <path class="cls-1" d="M188.86,87.71c-4.28,1.05-9.46-.83-11.31-4.96,2.2-.89,4.66-1.11,6.91-.22s3.74,2.97,4.4,5.17Z"/>
    <path class="cls-1" d="M131.61,73.26c3.5-.36,6.1,1.18,8.26,3.78.46.61-1.1.92-1.55,1.04-2,.51-4.58.6-6.52-.21-.57-.24-4.24-2.75-4.23-3.11,1.1-.77,2.7-1.37,4.04-1.51Z"/>
    <path class="cls-1" d="M177.7,63.7c-.07-.02-.13-.1-.11-.21.13-.76.89-2.37,1.3-3.07,1.17-1.98,3.44-3.4,5.68-3.84.44-.09,2.9-.43,2.97.12.02.16-.62,1.91-.75,2.2-.99,2.27-3.58,4.79-6.22,4.79-.65,0-2.38.13-2.88,0Z"/>
    <path class="cls-1" d="M153.02,45.77c.42-.12.93.85,1.14,1.21,2.39,4.07,1.43,7.81-2.05,10.78-.24,0-1.09-2.14-1.19-2.48-.67-2.17-.77-4.58.16-6.68.19-.42,1.63-2.74,1.94-2.82Z"/>
    <path class="cls-1" d="M141.55,82.75c.03.15-.03.23-.09.35-.45.95-2.21,2.64-3.09,3.26-2.21,1.54-5.43,1.75-8.03,1.35.33-2.35,3.13-5.2,5.5-5.46,1.83-.2,3.92.1,5.7.5Z"/>
    <path class="cls-1" d="M164.03,60.95c.19-.04.55-.09.68.08.1.13.32,1.58.34,1.84.08,1.05.03,2.21-.25,3.22-.7,2.53-2.88,4.25-5.25,5.16-1.18-2.87-.37-6.22,1.83-8.38.76-.74,1.84-1.21,2.65-1.91Z"/>
    <path class="cls-1" d="M166.4,29.49c.12-.03.52.53.62.66,1.66,2.19,1.99,4.43.99,7-.11.28-.88,1.86-1.12,1.86-1.7-1.52-2.77-3.96-2.28-6.25.26-1.2.93-2.4,1.79-3.27Z"/>
  </g>
  <g>
    <path d="M69.42,189.25h.8v2.61l2.88-2.61h1.11l-3.15,2.84,3.4,3.37h-1.13l-2.85-2.87-.25.22v2.65h-.8v-6.21Z"/>
    <path d="M78.81,189.09c.96,0,1.75.35,2.38,1.04.57.63.86,1.38.86,2.24s-.3,1.62-.91,2.27c-.6.65-1.38.97-2.33.97s-1.73-.32-2.33-.97c-.6-.65-.91-1.41-.91-2.27s.29-1.6.86-2.24c.63-.7,1.42-1.04,2.38-1.04ZM78.8,189.88c-.66,0-1.23.25-1.71.74-.48.49-.72,1.08-.72,1.78,0,.45.11.87.33,1.25.22.39.51.69.88.9s.78.32,1.22.32.85-.11,1.22-.32.66-.51.88-.9c.22-.39.33-.81.33-1.25,0-.7-.24-1.29-.72-1.78-.48-.49-1.05-.74-1.71-.74Z"/>
    <path d="M88.51,192.47h-3.61v2.99h-.8v-6.21h.8v2.46h3.61v-2.46h.8v6.21h-.8v-2.99Z"/>
    <path d="M97.7,190.54l-.63.39c-.55-.73-1.29-1.09-2.24-1.09-.76,0-1.38.24-1.88.73-.5.49-.75,1.08-.75,1.77,0,.45.11.88.34,1.28.23.4.55.71.95.93.4.22.85.33,1.35.33.91,0,1.66-.36,2.23-1.09l.63.42c-.3.45-.7.79-1.2,1.04-.5.25-1.07.37-1.71.37-.98,0-1.79-.31-2.44-.94-.65-.62-.97-1.38-.97-2.28,0-.6.15-1.16.45-1.67.3-.52.72-.92,1.25-1.21.53-.29,1.12-.43,1.77-.43.41,0,.81.06,1.19.19.38.12.71.29.97.49.27.2.49.46.68.77Z"/>
    <path d="M99.15,189.25h.84l2.13,4.78,2.07-4.78h.85l-3.7,8.48h-.84l1.19-2.74-2.55-5.74Z"/>
    <path d="M111.91,195.46h-.85l-2.08-4.52-2.06,4.52h-.86l2.85-6.21h.14l2.86,6.21Z"/>
    <path d="M114.51,191.71h.76c.6,0,1.08.05,1.42.14.34.09.64.31.88.63.25.33.37.7.37,1.12,0,.51-.18.95-.54,1.31-.36.36-.9.54-1.63.54h-2.06v-6.21h.79v2.46ZM114.54,192.44v2.34h.92c1.08,0,1.62-.38,1.62-1.14,0-.22-.06-.43-.17-.64-.12-.21-.29-.36-.51-.44s-.62-.13-1.18-.13h-.68Z"/>
    <path d="M119.11,189.25h4.08v.69h-1.64v5.52h-.8v-5.52h-1.64v-.69Z"/>
    <path d="M131.04,189.25v6.21h-.79v-1.07c-.33.41-.71.71-1.13.92-.42.21-.87.31-1.37.31-.88,0-1.63-.32-2.25-.96-.62-.64-.93-1.41-.93-2.32s.31-1.66.94-2.29c.63-.64,1.38-.95,2.26-.95.51,0,.97.11,1.38.33.41.22.77.54,1.09.98v-1.14h.79ZM127.85,189.87c-.44,0-.85.11-1.23.33s-.67.52-.9.92c-.22.4-.33.81-.33,1.25s.11.85.34,1.25c.22.4.53.71.9.93s.78.33,1.22.33.85-.11,1.24-.33c.39-.22.69-.52.9-.89s.32-.8.32-1.27c0-.72-.24-1.32-.71-1.8-.47-.48-1.05-.72-1.75-.72Z"/>
    <path d="M137.83,192.47h-3.61v2.99h-.8v-6.21h.8v2.46h3.61v-2.46h.8v6.21h-.8v-2.99Z"/>
    <path d="M140.3,189.25h4.08v.69h-1.64v5.52h-.8v-5.52h-1.64v-.69Z"/>
    <path d="M149.92,194.78l2.39-5.53h.42l2.38,5.53h.75v1.47h-.77v-.79h-5.13v.83h-.79v-1.51h.75ZM152.51,190.49l-1.81,4.3h3.56l-1.74-4.3Z"/>
    <path d="M160.46,189.09c.96,0,1.75.35,2.38,1.04.57.63.86,1.38.86,2.24s-.3,1.62-.91,2.27c-.6.65-1.38.97-2.33.97s-1.73-.32-2.33-.97c-.6-.65-.91-1.41-.91-2.27s.29-1.6.86-2.24c.63-.7,1.42-1.04,2.38-1.04ZM160.45,189.88c-.66,0-1.23.25-1.71.74-.48.49-.72,1.08-.72,1.78,0,.45.11.87.33,1.25.22.39.51.69.88.9s.78.32,1.22.32.85-.11,1.22-.32.66-.51.88-.9c.22-.39.33-.81.33-1.25,0-.7-.24-1.29-.72-1.78-.48-.49-1.05-.74-1.71-.74Z"/>
    <path d="M171.01,195.46h-.85l-2.08-4.52-2.06,4.52h-.86l2.85-6.21h.14l2.86,6.21Z"/>
    <path d="M173.09,186.7c.18,0,.34.06.47.19.13.13.19.29.19.47s-.06.33-.19.46c-.13.13-.28.19-.47.19s-.33-.06-.46-.19c-.13-.13-.19-.28-.19-.46s.06-.34.19-.47c.13-.13.28-.19.46-.19ZM172.69,189.25h.8v6.21h-.8v-6.21Z"/>
    <path d="M179.55,189.25h5.21v6.21h-.8v-5.45h-3.61v5.45h-.8v-6.21Z"/>
    <path d="M190.06,189.09c.96,0,1.75.35,2.38,1.04.57.63.86,1.38.86,2.24s-.3,1.62-.91,2.27c-.6.65-1.38.97-2.33.97s-1.73-.32-2.33-.97c-.6-.65-.91-1.41-.91-2.27s.29-1.6.86-2.24c.63-.7,1.42-1.04,2.38-1.04ZM190.06,189.88c-.66,0-1.23.25-1.71.74-.48.49-.72,1.08-.72,1.78,0,.45.11.87.33,1.25.22.39.51.69.88.9s.78.32,1.22.32.85-.11,1.22-.32.66-.51.88-.9c.22-.39.33-.81.33-1.25,0-.7-.24-1.29-.72-1.78-.48-.49-1.05-.74-1.71-.74Z"/>
    <path d="M204.97,195.46h-5.8v-6.21h.8v5.45h3.61v-5.45h.8v5.45h1.35v1.73h-.75v-.98Z"/>
    <path d="M208.18,189.25v4.59l4.56-4.59h.06v6.21h-.8v-4.55l-4.52,4.55h-.1v-6.21h.8Z"/>
    <path d="M220.19,186.86h.8v3.33c.5-.71,1.21-1.06,2.15-1.06s1.66.31,2.27.92c.61.61.92,1.4.92,2.36s-.31,1.72-.92,2.33-1.36.91-2.24.91c-.96,0-1.68-.37-2.17-1.12v3.2h-.8v-3.2c-.48.75-1.21,1.12-2.19,1.12-.86,0-1.6-.3-2.22-.91-.62-.61-.93-1.39-.93-2.34s.3-1.74.92-2.36,1.37-.92,2.27-.92c.95,0,1.67.35,2.15,1.06v-3.33ZM215.67,192.36c0,.69.22,1.29.67,1.78.45.49,1.04.74,1.79.74.26,0,.54-.07.83-.2.3-.13.54-.3.71-.5.18-.2.32-.43.41-.69.09-.26.14-.65.14-1.15,0-.81-.21-1.42-.63-1.85s-.92-.64-1.52-.64c-.66,0-1.23.24-1.7.71-.47.48-.71,1.07-.71,1.8ZM220.97,192.51c0,.74.21,1.32.63,1.75.42.42.91.63,1.45.63.74,0,1.34-.25,1.79-.74.45-.49.67-1.09.67-1.79s-.24-1.32-.71-1.79c-.47-.48-1.04-.71-1.7-.71-.6,0-1.1.21-1.51.64-.41.42-.62,1.1-.62,2.02Z"/>
    <path d="M228.4,189.25h.8v1.14c.32-.43.68-.76,1.09-.98s.87-.33,1.37-.33c.88,0,1.63.32,2.26.95.63.63.94,1.4.94,2.29s-.31,1.69-.93,2.32c-.62.64-1.37.96-2.25.96-.49,0-.95-.1-1.36-.31-.41-.21-.79-.51-1.12-.92v3.34h-.8v-8.48ZM231.59,189.87c-.69,0-1.27.24-1.74.72-.47.48-.71,1.08-.71,1.8,0,.47.11.89.32,1.27.21.38.51.67.91.89.39.22.81.33,1.24.33s.83-.11,1.21-.33c.38-.22.68-.53.9-.93s.34-.82.34-1.25-.11-.86-.33-1.25-.52-.7-.9-.92c-.38-.22-.79-.33-1.23-.33Z"/>
    <path d="M243.12,189.25v6.21h-.79v-1.07c-.33.41-.71.71-1.13.92-.42.21-.87.31-1.37.31-.88,0-1.63-.32-2.25-.96-.62-.64-.93-1.41-.93-2.32s.31-1.66.94-2.29c.63-.64,1.38-.95,2.26-.95.51,0,.97.11,1.38.33.41.22.77.54,1.09.98v-1.14h.79ZM239.93,189.87c-.44,0-.85.11-1.23.33s-.67.52-.9.92c-.22.4-.33.81-.33,1.25s.11.85.34,1.25c.22.4.53.71.9.93s.78.33,1.22.33.85-.11,1.24-.33c.39-.22.69-.52.9-.89s.32-.8.32-1.27c0-.72-.24-1.32-.71-1.8-.47-.48-1.05-.72-1.75-.72Z"/>
    <path d="M244.79,189.25h.96l1.65,2.27,1.63-2.27h.96l-2.11,2.93,2.38,3.27h-.97l-1.89-2.61-1.88,2.61h-.95l2.35-3.27-2.13-2.94Z"/>
  </g>
</svg>