<?xml version="1.0" encoding="UTF-8"?>
<svg id="_Шар_1" data-name="Шар 1" xmlns="http://www.w3.org/2000/svg" viewBox="0 0 318.8 228.53">
  <defs>
    <style>
      .cls-1 {
        font-family: Lovan-Regular, Lovan;
        font-size: 180.24px;
        letter-spacing: .01em;
      }

      .cls-1, .cls-2 {
        fill: #ffffff;
      }
    </style>
  </defs>
  <text class="cls-1" transform="translate(77.65 165.18)">
    <tspan x="0" y="0">V</tspan>
  </text>
  <path class="cls-2" d="M141.89,131.61l-5.12-9.21,6.9,7.99c2.42-6.25-1.5-13.29-8.12-14.46-.8-.14-2.55-.38-3.23.04-.47.29-1.03,2.33-1.13,2.94-1.13,6.61,3.93,12.89,10.7,12.7Z"/>
  <path class="cls-2" d="M135.11,151.86c.18-.03.38-.38.11-.57l-4.81-10.48,6.99,9.76c1.54-3.31,1.66-7.15.02-10.43-1.72-3.46-4.72-5.75-8.49-6.56-1.3-.28-2.63-.67-3.39.57-3.63,5.94-.14,13.88,5.9,16.62.5.23,3.32,1.13,3.66,1.08Z"/>
  <path class="cls-2" d="M146.86,141.5l7.71-5.82c0,.49-.61.93-.93,1.28-1.82,1.97-3.71,3.9-5.64,5.76,5.86,2.02,12.3-3.15,12.17-9.24-.04-1.72.01-2.44-1.74-2.82-6.52-1.4-12.57,4.29-11.58,10.84Z"/>
  <path class="cls-2" d="M146.86,114.61l-1.08-9.61,2.51,7.66.17,1.29c.59.62,2.19-2.46,2.36-2.92,1.73-4.57.26-9.32-3.73-12.09-2.16-1.5-2.77-1.78-4.4.35-4,5.22-1.93,12.94,4.17,15.32Z"/>
  <path class="cls-2" d="M150.7,123.04c0,.5.45.13.58.12,2.01-.25,4.1-.85,6.12-1.16.14.35-.39.38-.6.45-1.89.69-3.84,1.27-5.66,2.15,3.56,2.87,9,1.76,10.89-2.46.64-1.42.46-1.55-.82-2.48-2.65-1.94-6.8-1.36-9,1.05-.21.23-1.5,2.19-1.5,2.33Z"/>
  <text class="cls-1" transform="translate(156.08 165.18)">
    <tspan x="0" y="0">H</tspan>
  </text>
</svg>
