<svg width="1080" height="1080" viewBox="0 0 1080 1080" fill="none" xmlns="http://www.w3.org/2000/svg">
<g clip-path="url(#clip0_140_282)">
<rect width="1080" height="1080" fill="white"/>
<path d="M489 119L759 227L849 443L759 659L489 767L219 659L129 443L219 227L489 119Z" stroke="black" stroke-width="1.66667"/>
<path d="M489 443V119" stroke="black" stroke-width="0.833333"/>
<path d="M489 443L759 227" stroke="black" stroke-width="0.833333"/>
<path d="M489 443H849" stroke="black" stroke-width="0.833333"/>
<path d="M489 443L759 659" stroke="black" stroke-width="0.833333"/>
<path d="M489 443V767" stroke="black" stroke-width="0.833333"/>
<path d="M220 227L218 659" stroke="black" stroke-width="0.833333"/>
<path d="M758 233L756 665" stroke="black" stroke-width="0.833333"/>
<path d="M489 443L219 659" stroke="black" stroke-width="0.833333"/>
<path d="M489 443H129" stroke="black" stroke-width="0.833333"/>
<path d="M489 443L219 227" stroke="black" stroke-width="0.833333"/>
<path d="M772 227L229 226.802" stroke="black" stroke-width="0.833333"/>
<path d="M763 655.324L220 655.127" stroke="black" stroke-width="0.833333"/>
<path d="M841 443L490 762" stroke="black" stroke-width="0.833333"/>
<path d="M485 119L134 438" stroke="black" stroke-width="0.833333"/>
<path d="M841 443L482.91 119" stroke="black" stroke-width="0.833333"/>
<path d="M494.21 773.743L130.5 444" stroke="black" stroke-width="0.833333"/>
<path d="M483.805 138.555C494.605 140.872 505.239 133.995 507.555 123.194C509.872 112.394 502.994 101.761 492.194 99.4448C481.394 97.1282 470.761 104.005 468.445 114.806C466.128 125.606 473.005 136.239 483.805 138.555Z" fill="#800080"/>
<path d="M485.873 124L491.294 113.276V113.181H485.044V111.879H492.809V113.252L487.412 124H485.873Z" fill="white"/>
<path d="M758 243C769.046 243 778 234.046 778 223C778 211.954 769.046 203 758 203C746.954 203 738 211.954 738 223C738 234.046 746.954 243 758 243Z" fill="#FFA500"/>
<path d="M489 466C502.807 466 514 454.807 514 441C514 427.193 502.807 416 489 416C475.193 416 464 427.193 464 441C464 454.807 475.193 466 489 466Z" fill="#FFFF00" stroke="black" stroke-width="1.66667"/>
<path d="M754.836 215.879V228H753.369V217.418H753.298L750.338 219.383V217.891L753.369 215.879H754.836ZM762.418 228.166C761.637 228.166 760.94 228.032 760.329 227.763C759.721 227.495 759.238 227.122 758.879 226.645C758.524 226.163 758.33 225.605 758.299 224.97H759.79C759.822 225.36 759.956 225.698 760.193 225.982C760.429 226.262 760.739 226.479 761.122 226.633C761.505 226.787 761.929 226.864 762.394 226.864C762.915 226.864 763.377 226.773 763.779 226.591C764.182 226.41 764.497 226.157 764.726 225.834C764.955 225.51 765.07 225.135 765.07 224.709C765.07 224.263 764.959 223.871 764.738 223.531C764.517 223.188 764.194 222.92 763.768 222.727C763.341 222.533 762.821 222.437 762.205 222.437H761.234V221.134H762.205C762.686 221.134 763.109 221.048 763.472 220.874C763.839 220.7 764.125 220.456 764.33 220.14C764.539 219.824 764.643 219.454 764.643 219.027C764.643 218.617 764.553 218.26 764.371 217.956C764.19 217.652 763.933 217.416 763.602 217.246C763.274 217.076 762.888 216.991 762.442 216.991C762.024 216.991 761.629 217.068 761.258 217.222C760.891 217.372 760.591 217.591 760.358 217.879C760.126 218.163 759.999 218.507 759.98 218.909H758.559C758.583 218.274 758.774 217.717 759.133 217.24C759.492 216.759 759.962 216.384 760.542 216.116C761.126 215.847 761.767 215.713 762.465 215.713C763.215 215.713 763.858 215.865 764.395 216.169C764.932 216.469 765.344 216.865 765.632 217.358C765.92 217.852 766.064 218.384 766.064 218.956C766.064 219.639 765.884 220.221 765.525 220.702C765.17 221.184 764.687 221.517 764.075 221.703V221.797C764.841 221.924 765.439 222.249 765.869 222.774C766.299 223.295 766.514 223.94 766.514 224.709C766.514 225.368 766.334 225.96 765.975 226.485C765.62 227.006 765.135 227.416 764.519 227.716C763.904 228.016 763.203 228.166 762.418 228.166Z" fill="white"/>
<path d="M841 461C852.046 461 861 452.046 861 441C861 429.954 852.046 421 841 421C829.954 421 821 429.954 821 441C821 452.046 829.954 461 841 461Z" fill="#FF0000"/>
<path d="M841.079 447.166C840.582 447.158 840.085 447.063 839.588 446.882C839.091 446.7 838.637 446.394 838.226 445.964C837.816 445.53 837.487 444.944 837.238 444.206C836.989 443.465 836.865 442.533 836.865 441.413C836.865 440.34 836.966 439.389 837.167 438.56C837.368 437.728 837.66 437.027 838.043 436.459C838.426 435.887 838.887 435.453 839.428 435.157C839.972 434.861 840.586 434.713 841.269 434.713C841.947 434.713 842.551 434.849 843.08 435.121C843.612 435.39 844.046 435.765 844.382 436.246C844.717 436.727 844.934 437.282 845.033 437.909H843.589C843.454 437.365 843.194 436.913 842.807 436.554C842.421 436.195 841.908 436.015 841.269 436.015C840.329 436.015 839.59 436.424 839.049 437.24C838.512 438.057 838.242 439.203 838.238 440.679H838.333C838.554 440.344 838.816 440.058 839.12 439.821C839.428 439.58 839.767 439.395 840.138 439.264C840.509 439.134 840.902 439.069 841.316 439.069C842.01 439.069 842.646 439.243 843.222 439.59C843.798 439.933 844.259 440.409 844.607 441.016C844.954 441.62 845.127 442.313 845.127 443.094C845.127 443.843 844.96 444.53 844.624 445.153C844.289 445.773 843.817 446.266 843.21 446.633C842.606 446.996 841.896 447.174 841.079 447.166ZM841.079 445.864C841.576 445.864 842.022 445.739 842.417 445.491C842.815 445.242 843.129 444.909 843.358 444.491C843.591 444.072 843.707 443.607 843.707 443.094C843.707 442.593 843.595 442.137 843.37 441.727C843.149 441.312 842.843 440.983 842.452 440.738C842.066 440.494 841.624 440.371 841.127 440.371C840.752 440.371 840.402 440.446 840.079 440.596C839.755 440.742 839.471 440.943 839.227 441.2C838.986 441.456 838.797 441.75 838.658 442.082C838.52 442.409 838.451 442.754 838.451 443.117C838.451 443.599 838.564 444.049 838.789 444.467C839.018 444.885 839.329 445.222 839.724 445.479C840.122 445.735 840.574 445.864 841.079 445.864Z" fill="white"/>
<path d="M752 675C763.046 675 772 666.046 772 655C772 643.954 763.046 635 752 635C740.954 635 732 643.954 732 655C732 666.046 740.954 675 752 675Z" fill="#0000FF"/>
<path d="M749.007 648.879V661H747.54V650.418H747.468L744.509 652.383V650.891L747.54 648.879H749.007ZM756.376 661.166C755.563 661.166 754.845 661.022 754.222 660.734C753.602 660.442 753.119 660.041 752.772 659.532C752.424 659.019 752.253 658.435 752.257 657.78C752.253 657.267 752.353 656.794 752.558 656.36C752.764 655.922 753.044 655.557 753.399 655.265C753.758 654.969 754.158 654.782 754.6 654.703V654.632C754.02 654.482 753.559 654.156 753.215 653.655C752.872 653.15 752.702 652.576 752.706 651.933C752.702 651.317 752.858 650.767 753.174 650.281C753.49 649.796 753.924 649.413 754.476 649.133C755.032 648.853 755.666 648.713 756.376 648.713C757.078 648.713 757.706 648.853 758.258 649.133C758.81 649.413 759.244 649.796 759.56 650.281C759.88 650.767 760.041 651.317 760.045 651.933C760.041 652.576 759.866 653.15 759.519 653.655C759.175 654.156 758.72 654.482 758.151 654.632V654.703C758.589 654.782 758.984 654.969 759.335 655.265C759.686 655.557 759.967 655.922 760.176 656.36C760.385 656.794 760.491 657.267 760.495 657.78C760.491 658.435 760.314 659.019 759.963 659.532C759.615 660.041 759.132 660.442 758.513 660.734C757.897 661.022 757.185 661.166 756.376 661.166ZM756.376 659.864C756.924 659.864 757.398 659.775 757.796 659.597C758.195 659.42 758.503 659.169 758.72 658.846C758.937 658.522 759.047 658.143 759.051 657.709C759.047 657.252 758.929 656.847 758.696 656.496C758.463 656.145 758.146 655.869 757.743 655.667C757.345 655.466 756.889 655.366 756.376 655.366C755.859 655.366 755.397 655.466 754.991 655.667C754.589 655.869 754.271 656.145 754.038 656.496C753.809 656.847 753.697 657.252 753.701 657.709C753.697 658.143 753.801 658.522 754.014 658.846C754.231 659.169 754.541 659.42 754.944 659.597C755.346 659.775 755.824 659.864 756.376 659.864ZM756.376 654.111C756.81 654.111 757.195 654.024 757.53 653.85C757.869 653.677 758.136 653.434 758.329 653.122C758.522 652.811 758.621 652.446 758.625 652.027C758.621 651.617 758.524 651.26 758.335 650.956C758.146 650.648 757.883 650.412 757.548 650.246C757.212 650.076 756.822 649.991 756.376 649.991C755.922 649.991 755.526 650.076 755.186 650.246C754.847 650.412 754.585 650.648 754.399 650.956C754.214 651.26 754.123 651.617 754.127 652.027C754.123 652.446 754.216 652.811 754.405 653.122C754.598 653.434 754.865 653.677 755.204 653.85C755.543 654.024 755.934 654.111 756.376 654.111Z" fill="white"/>
<path d="M488 787C499.046 787 508 778.046 508 767C508 755.954 499.046 747 488 747C476.954 747 468 755.954 468 767C468 778.046 476.954 787 488 787Z" fill="#008000"/>
<path d="M487.973 773.166C487.278 773.166 486.653 773.028 486.096 772.751C485.54 772.475 485.094 772.096 484.759 771.615C484.423 771.134 484.24 770.585 484.208 769.97H485.629C485.684 770.518 485.933 770.972 486.375 771.331C486.82 771.686 487.353 771.864 487.973 771.864C488.47 771.864 488.912 771.747 489.298 771.514C489.689 771.282 489.995 770.962 490.216 770.556C490.441 770.145 490.553 769.682 490.553 769.165C490.553 768.636 490.437 768.165 490.204 767.75C489.975 767.332 489.659 767.003 489.257 766.762C488.854 766.521 488.395 766.399 487.878 766.395C487.507 766.391 487.126 766.448 486.736 766.567C486.345 766.681 486.023 766.829 485.771 767.01L484.398 766.845L485.132 760.879H491.429V762.181H486.363L485.937 765.756H486.008C486.256 765.558 486.568 765.395 486.943 765.264C487.318 765.134 487.708 765.069 488.115 765.069C488.856 765.069 489.517 765.247 490.097 765.602C490.681 765.953 491.139 766.434 491.47 767.046C491.806 767.658 491.974 768.356 491.974 769.141C491.974 769.914 491.8 770.605 491.453 771.213C491.109 771.816 490.636 772.294 490.032 772.645C489.429 772.992 488.742 773.166 487.973 773.166Z" fill="white"/>
<path d="M218 674C229.046 674 238 665.046 238 654C238 642.954 229.046 634 218 634C206.954 634 198 642.954 198 654C198 665.046 206.954 674 218 674Z" fill="#800080"/>
<path d="M215.237 647.879V660H213.769V649.418H213.698L210.739 651.383V649.891L213.769 647.879H215.237ZM218.723 660V658.935L222.724 654.555C223.194 654.042 223.58 653.596 223.884 653.217C224.188 652.835 224.413 652.476 224.559 652.14C224.709 651.801 224.784 651.446 224.784 651.075C224.784 650.649 224.681 650.28 224.476 649.968C224.275 649.656 223.998 649.416 223.647 649.246C223.296 649.076 222.902 648.991 222.464 648.991C221.998 648.991 221.592 649.088 221.244 649.281C220.901 649.471 220.635 649.737 220.445 650.08C220.26 650.424 220.167 650.826 220.167 651.288H218.77C218.77 650.578 218.934 649.954 219.262 649.418C219.589 648.881 220.035 648.463 220.599 648.163C221.167 647.863 221.805 647.713 222.511 647.713C223.221 647.713 223.851 647.863 224.399 648.163C224.947 648.463 225.377 648.867 225.689 649.376C226.001 649.885 226.157 650.451 226.157 651.075C226.157 651.521 226.076 651.957 225.914 652.383C225.756 652.805 225.48 653.277 225.086 653.797C224.695 654.314 224.152 654.946 223.458 655.691L220.735 658.603V658.698H226.37V660H218.723Z" fill="white"/>
<path d="M129 461C140.046 461 149 452.046 149 441C149 429.954 140.046 421 129 421C117.954 421 109 429.954 109 441C109 452.046 117.954 461 129 461Z" fill="#0000FF"/>
<path d="M128.973 446.166C128.278 446.166 127.653 446.028 127.096 445.751C126.54 445.475 126.094 445.096 125.759 444.615C125.423 444.134 125.24 443.585 125.208 442.97H126.629C126.684 443.518 126.933 443.972 127.375 444.331C127.82 444.686 128.353 444.864 128.973 444.864C129.47 444.864 129.912 444.747 130.298 444.514C130.689 444.282 130.995 443.962 131.216 443.556C131.441 443.145 131.553 442.682 131.553 442.165C131.553 441.636 131.437 441.165 131.204 440.75C130.975 440.332 130.659 440.003 130.257 439.762C129.854 439.521 129.395 439.399 128.878 439.395C128.507 439.391 128.126 439.448 127.736 439.567C127.345 439.681 127.023 439.829 126.771 440.01L125.398 439.845L126.132 433.879H132.429V435.181H127.363L126.937 438.756H127.008C127.256 438.558 127.568 438.395 127.943 438.264C128.318 438.134 128.708 438.069 129.115 438.069C129.856 438.069 130.517 438.247 131.097 438.602C131.681 438.953 132.139 439.434 132.47 440.046C132.806 440.658 132.974 441.356 132.974 442.141C132.974 442.914 132.8 443.605 132.453 444.213C132.109 444.816 131.636 445.294 131.032 445.645C130.429 445.992 129.742 446.166 128.973 446.166Z" fill="white"/>
<path d="M220 247C231.046 247 240 238.046 240 227C240 215.954 231.046 207 220 207C208.954 207 200 215.954 200 227C200 238.046 208.954 247 220 247Z" fill="#008000"/>
<path d="M218.973 231.166C218.278 231.166 217.653 231.028 217.096 230.751C216.54 230.475 216.094 230.096 215.759 229.615C215.423 229.134 215.24 228.585 215.208 227.97H216.629C216.684 228.518 216.933 228.972 217.375 229.331C217.82 229.686 218.353 229.864 218.973 229.864C219.47 229.864 219.912 229.747 220.298 229.514C220.689 229.282 220.995 228.962 221.216 228.556C221.441 228.145 221.553 227.682 221.553 227.165C221.553 226.636 221.437 226.165 221.204 225.75C220.975 225.332 220.659 225.003 220.257 224.762C219.854 224.521 219.395 224.399 218.878 224.395C218.507 224.391 218.126 224.448 217.736 224.567C217.345 224.681 217.023 224.829 216.771 225.01L215.398 224.845L216.132 218.879H222.429V220.181H217.363L216.937 223.756H217.008C217.256 223.558 217.568 223.395 217.943 223.264C218.318 223.134 218.708 223.069 219.115 223.069C219.856 223.069 220.517 223.247 221.097 223.602C221.681 223.953 222.139 224.434 222.47 225.046C222.806 225.658 222.974 226.356 222.974 227.141C222.974 227.914 222.8 228.605 222.453 229.213C222.109 229.816 221.636 230.294 221.032 230.645C220.429 230.992 219.742 231.166 218.973 231.166Z" fill="white"/>
<path d="M489.37 430.57C490.116 430.576 490.862 430.718 491.607 430.996C492.353 431.274 493.034 431.736 493.649 432.381C494.265 433.02 494.759 433.893 495.132 435C495.505 436.106 495.691 437.494 495.691 439.163C495.691 440.779 495.537 442.214 495.23 443.469C494.928 444.718 494.49 445.771 493.916 446.63C493.347 447.488 492.655 448.139 491.838 448.583C491.027 449.027 490.11 449.249 489.086 449.249C488.068 449.249 487.16 449.047 486.361 448.645C485.567 448.237 484.916 447.671 484.407 446.949C483.904 446.221 483.582 445.378 483.44 444.419H485.606C485.801 445.254 486.189 445.943 486.769 446.488C487.355 447.026 488.127 447.295 489.086 447.295C490.489 447.295 491.596 446.683 492.406 445.458C493.223 444.233 493.632 442.501 493.632 440.264H493.489C493.158 440.761 492.764 441.19 492.309 441.551C491.853 441.913 491.347 442.191 490.791 442.386C490.234 442.581 489.642 442.679 489.015 442.679C487.973 442.679 487.018 442.422 486.148 441.907C485.283 441.386 484.591 440.673 484.07 439.767C483.555 438.856 483.298 437.814 483.298 436.642C483.298 435.529 483.546 434.511 484.043 433.588C484.547 432.659 485.251 431.919 486.156 431.369C487.068 430.818 488.139 430.552 489.37 430.57ZM489.37 432.523C488.624 432.523 487.953 432.709 487.355 433.082C486.763 433.449 486.293 433.946 485.943 434.574C485.6 435.195 485.428 435.884 485.428 436.642C485.428 437.4 485.594 438.089 485.926 438.711C486.263 439.326 486.722 439.817 487.302 440.184C487.888 440.545 488.553 440.726 489.299 440.726C489.861 440.726 490.385 440.616 490.871 440.397C491.356 440.172 491.779 439.868 492.14 439.483C492.507 439.092 492.794 438.651 493.001 438.16C493.208 437.663 493.312 437.145 493.312 436.607C493.312 435.896 493.14 435.23 492.797 434.609C492.46 433.988 491.992 433.484 491.394 433.1C490.802 432.715 490.128 432.523 489.37 432.523Z" fill="black"/>
<path d="M531.442 205.188C513.961 207.922 510.348 209.777 491.696 226.477C475.094 241.223 464.547 253.625 458.981 264.66C452.438 277.453 446.969 291.809 446.969 295.91C447.067 308.215 457.614 342.785 465.133 355.188C466.989 358.215 469.723 364.172 471.286 368.371C477.145 384.289 478.317 387.023 482.711 394.055C491.5 408.41 497.946 414.172 507.516 416.516C512.106 417.59 517.477 417.199 527.243 414.953C529.586 414.465 530.075 414.758 531.539 417.883C532.516 419.836 533.004 421.594 532.711 421.887C532.418 422.18 525.68 422.863 517.672 423.449C499.899 424.621 488.668 425.891 483.981 427.258C480.075 428.332 477.145 432.629 454.684 470.715C427.243 517.004 409.957 545.52 398.141 563.879C387.301 580.773 361.325 619.934 357.321 625.402C354.977 628.723 354.489 629.992 355.27 630.969C356.442 632.336 357.418 632.043 360.25 629.699C361.715 628.43 362.789 628.723 369.723 632.336C374.02 634.582 379.391 638.195 381.539 640.246C385.25 643.859 388.375 644.543 388.375 641.613C388.375 639.465 377.926 630.773 371.188 627.453C367.77 625.695 364.938 624.035 364.938 623.938C364.938 623.742 371.676 613.488 379.879 601.086C401.95 567.688 416.989 543.957 437.399 509.777C440.621 504.406 445.309 496.691 447.75 492.688C450.192 488.684 456.832 477.258 462.594 467.297C475.387 445.129 482.321 434.484 485.348 432.043C487.399 430.578 490.524 430.09 505.661 429.211C515.524 428.723 526.364 428.039 529.782 427.648L535.836 427.063L537.887 431.848C539.352 435.07 540.231 439.953 540.817 447.766C543.161 478.234 547.653 491.027 557.711 496.008C561.129 497.668 562.106 497.766 566.012 496.691C568.453 496.105 572.262 494.348 574.411 492.883C581.637 487.902 599.215 464.172 612.887 440.734C616.11 435.07 619.723 429.699 620.7 428.723C622.457 427.258 624.313 427.063 638.571 427.453C649.508 427.844 656.051 428.43 659.371 429.504C666.989 431.945 676.071 438 680.368 443.371C691.989 458.02 709.078 481.359 723.825 502.746C725.973 505.773 730.172 511.828 733.102 516.027C742.379 529.211 778.512 581.652 783.59 589.367C786.227 593.371 792.77 603.039 798.043 610.852C827.145 653.723 843.942 680.676 851.559 696.691C854.879 703.918 856.539 708.605 856.832 712.512C857.321 717.98 857.321 718.078 853.219 722.57C850.778 725.207 845.7 728.918 841.11 731.359C822.75 741.32 767.672 759.777 717.965 772.668C663.668 786.73 663.473 786.73 662.594 785.461C660.641 782.434 660.739 779.895 662.692 777.746C665.719 774.523 670.602 757.238 670.602 749.816C670.602 746.496 650.875 711.828 645.407 705.578C643.161 702.941 641.598 700.598 642.086 700.305C642.477 700.109 649.02 698.254 656.539 696.398C663.961 694.543 674.118 691.809 678.903 690.441C683.786 688.977 699.703 684.777 714.352 681.066C735.153 675.793 741.891 674.426 744.918 674.914C748.141 675.5 749.118 675.207 750.192 673.547C751.266 672.082 753.512 671.301 760.153 670.422C771.871 668.762 788.961 668.664 796.383 670.324C799.703 671.105 802.828 671.398 803.121 671.008C804.391 669.738 801.852 667.199 797.946 665.637C791.793 663.293 766.696 663.684 753.707 666.516L743.649 668.664L709.762 634.973C663.571 589.074 643.356 569.836 641.305 569.836C640.328 569.836 639.254 570.617 638.864 571.496C638.375 572.863 640.328 575.207 647.262 581.555C661.422 594.543 676.168 609.191 674.02 608.117C672.946 607.531 668.356 604.797 663.766 602.063C658.395 598.84 654.586 597.18 653.024 597.375C648.629 597.863 650.387 600.5 658.102 604.602C667.282 609.484 683.883 621.105 695.016 630.383L703.317 637.316L704.489 644.348C705.172 648.254 705.856 657.238 705.953 664.465L706.246 677.551L703.805 678.332C690.328 682.434 643.161 694.836 640.719 694.836C639.743 694.836 637.887 695.422 636.618 696.105C634.469 697.18 634.371 697.961 633.883 709.973C633.59 716.906 633.2 722.766 633.004 722.961C632.809 723.156 631.442 722.668 629.879 721.887C624.606 719.152 591.989 707.336 584.664 705.48C578.121 703.918 577.145 703.82 575.094 705.188C571.774 707.336 531.442 746.789 524.313 754.797C517.379 762.707 516.11 765.734 518.844 767.785C521.676 769.934 531.051 768.664 537.106 765.441C542.379 762.512 574.411 732.727 574.411 730.676C574.411 726.379 564.84 733.41 545.602 751.965C541.012 756.359 535.543 760.852 533.395 761.926C528.512 764.465 523.141 765.637 523.141 764.27C523.141 763 559.469 725.891 570.211 716.223L578.61 708.605L583.883 709.973C586.715 710.754 596.969 714.367 606.637 718.176C616.305 721.887 627.145 725.793 630.758 726.965L637.399 728.918L644.235 726.184L651.071 723.352L653.707 727.941C659.86 738.684 663.18 744.25 664.547 745.813C665.621 747.082 665.719 749.035 665.231 754.797C664.84 758.898 664.157 762.512 663.668 762.707C663.278 763 657.711 763.879 651.364 764.66C645.016 765.441 638.278 766.516 636.422 767.102C628.024 769.543 618.356 767.004 610.836 760.363C605.465 755.676 603.317 756.262 594.332 764.27C590.133 768.176 586.618 771.887 586.618 772.57C586.618 775.598 591.012 773.645 596.774 768.078C600.192 764.855 603.317 762.219 603.903 762.219C604.489 762.219 607.028 763.781 609.567 765.734C614.743 769.738 623.825 772.961 629.684 772.961C631.832 772.961 636.422 772.277 639.84 771.398C643.356 770.52 646.676 770.031 647.457 770.324C648.825 770.813 656.832 784.191 658.883 789.27C659.567 791.027 660.25 792.492 660.446 792.492C660.739 792.492 666.891 790.93 674.313 788.977C681.637 787.121 698.043 782.922 710.641 779.699C742.575 771.496 754.782 767.98 779.489 760.07C804.196 752.16 830.368 742.395 839.547 737.805C848.434 733.41 857.907 726.477 860.153 722.766C862.399 719.055 862.594 712.707 860.446 705.48C857.028 693.762 839.84 663.977 813.961 625.305C804.391 610.949 796.578 598.84 796.578 598.547C796.578 598.156 798.239 598.156 800.289 598.449C804.293 599.035 848.825 606.555 870.797 610.363C878.61 611.633 894.625 614.27 906.442 616.223C938.082 621.203 939.45 621.496 940.328 622.375C940.817 622.863 938.668 632.531 935.446 644.641C932.223 656.359 928.61 669.738 927.438 674.328C926.266 678.918 922.75 691.613 919.625 702.648C916.403 713.684 912.692 727.258 911.325 732.922C909.86 738.586 907.028 749.133 904.977 756.359C902.926 763.586 899.02 778.332 896.188 789.074C893.453 799.816 889.645 814.074 887.692 820.813C885.836 827.551 883.2 837.219 881.832 842.297C880.465 847.375 879.293 851.672 879.196 851.867C879 851.965 867.282 849.035 853.121 845.227C812.789 834.387 669.039 799.328 665.133 799.328C664.352 799.328 663.766 800.109 663.766 801.086C663.766 803.234 666.305 804.211 682.809 808.117C716.5 816.027 835.055 845.227 841.207 847.082C844.528 848.156 854.782 850.891 863.961 853.137C880.465 857.336 880.563 857.336 882.321 855.48C883.297 854.406 885.055 850.012 886.227 845.715C887.399 841.418 892.575 822.082 897.75 802.746C910.543 754.699 921.481 714.074 926.95 694.934C929.391 686.145 934.371 668.176 937.887 654.895C941.403 641.711 945.016 628.332 945.895 625.207C947.36 619.934 947.36 619.445 945.797 618.273C944.918 617.688 935.055 615.637 923.825 613.977C903.414 610.754 852.731 602.258 812.692 595.422L791.207 591.711L783.004 579.602C759.469 544.348 708.883 471.984 695.993 455.09C686.52 442.688 687.008 443.469 688.278 440.539C689.157 438.586 689.059 437.316 687.789 433.996C685.739 428.82 686.325 428.039 688.961 432.531C692.379 438.391 705.856 443.859 708.59 440.539C710.641 438.098 709.176 436.34 704.293 435.754C698.825 434.973 694.918 432.434 691.989 427.648C689.352 423.254 689.743 418.371 694.528 396.984C696.481 388.684 698.239 380.871 698.532 379.602C699.313 375.793 693.551 367.297 681.051 353.625C677.047 349.23 676.559 348.156 674.996 339.953C672.653 327.746 666.305 302.941 663.766 296.203C660.153 286.535 651.266 279.211 637.887 274.914C634.176 273.645 630.563 272.18 629.977 271.594C629.293 271.008 626.559 263.879 623.727 255.871C615.036 230.871 610.934 224.23 601.461 219.348C594.918 216.027 587.008 214.27 580.075 214.465C573.629 214.758 573.239 214.66 568.161 210.754C559.078 203.82 549.606 202.355 531.442 205.188ZM562.203 224.426C562.203 224.816 560.348 227.258 558.004 229.797C548.434 240.344 525.094 271.008 525.094 273.059C525.094 274.426 530.758 283.801 541.598 300.305C551.071 314.758 562.692 326.672 569.43 329.016C572.067 329.895 575.387 330.578 576.852 330.578C579.196 330.578 579.391 330.188 580.465 323.742C581.637 316.027 583.395 312.805 587.887 309.973C591.598 307.727 594.821 308.215 598.336 311.633C600.582 313.781 600.778 314.758 600.778 322.082C600.778 329.113 600.387 330.969 597.555 336.828C592.965 346.594 586.325 356.848 581.832 361.34C579.586 363.391 577.828 365.93 577.828 366.809C577.828 368.957 585.446 388.879 589.157 396.496C590.719 399.816 592.965 402.746 594.235 403.332C595.407 403.82 596.383 404.602 596.383 404.895C596.383 405.285 591.696 410.754 585.836 417.102C571.969 432.531 563.18 442.785 554.977 453.234L548.141 461.828L546.774 458.508C545.7 455.773 545.602 454.113 546.578 449.719C547.653 444.543 547.555 443.957 543.844 434.094C541.793 428.43 538.668 421.203 537.008 417.883L533.981 411.926L538.571 409.777C545.504 406.457 557.223 399.035 562.496 394.738C565.817 392.004 567.086 390.246 566.891 388.781C566.403 385.656 563.571 385.754 560.641 389.172C556.344 393.957 545.993 400.5 533.395 406.262C522.75 411.145 521.09 411.633 514.938 411.633C503.805 411.633 497.457 407.434 489.157 394.641C479.782 380.285 473.629 362.219 472.653 346.691L472.067 336.926L474.215 339.074C476.657 341.711 481.246 342.004 483.493 339.758C486.129 337.219 485.446 335.461 481.832 335.461C476.266 335.461 474.118 332.043 473.336 322.473C472.946 318.078 472.848 314.172 473.043 313.684C473.825 312.316 475.875 313 479.196 315.93C481.051 317.492 483.102 318.762 483.688 318.859C485.25 318.859 485.934 315.539 484.86 313.586C483.688 311.535 477.047 308.117 474.215 308.117C472.164 308.117 472.067 307.824 472.653 301.477C472.946 297.863 473.434 294.25 473.825 293.371C474.703 291.125 492.184 283.605 508.004 278.625C515.231 276.281 521.188 273.938 521.188 273.352C521.188 272.668 522.848 270.031 524.899 267.395C526.95 264.855 534.86 254.309 542.575 244.152C559.567 221.691 560.348 220.813 561.422 222.375C561.813 223.059 562.203 224.035 562.203 224.426ZM606.149 408.605C606.149 409.094 608.395 412.902 611.129 417.004C615.328 423.254 616.012 424.816 615.231 426.574C613.18 431.066 593.844 461.242 587.301 470.129C575.387 486.535 574.118 487.316 569.235 481.164C566.207 477.355 556.344 461.047 556.344 459.875C556.344 458.313 584.371 425.598 597.067 412.512C600.094 409.289 601.168 407.629 600.68 406.359C599.996 404.699 600.192 404.699 603.121 406.164C604.782 407.043 606.149 408.215 606.149 408.605ZM558.59 474.523C560.25 477.648 563.571 482.336 565.914 485.07C568.356 487.707 570.114 489.953 569.918 490.148C568.356 491.418 564.84 492.688 562.594 492.688C558.786 492.688 552.926 486.145 550.973 479.797C549.118 473.352 549.118 470.227 551.168 467.395C552.731 465.148 552.828 465.148 554.098 466.906C554.879 467.883 556.832 471.301 558.59 474.523ZM724.313 657.629L736.227 668.762L733.395 670.227C730.563 671.789 712.594 676.672 712.008 676.086C711.618 675.695 709.664 651.965 709.664 647.766C709.664 643.957 710.055 644.25 724.313 657.629ZM645.309 713.488C647.457 716.711 649.118 719.543 648.922 719.641C648.043 720.324 639.254 723.352 639.059 723.059C638.375 721.789 639.645 706.652 640.426 707.141C640.914 707.434 643.063 710.266 645.309 713.488ZM661.813 768.566C661.813 769.641 658.981 775.891 658.493 775.891C658.004 775.891 654.977 770.52 654.977 769.641C654.977 769.445 656.149 768.957 657.711 768.762C659.176 768.566 660.641 768.273 661.129 768.176C661.52 768.176 661.813 768.273 661.813 768.566Z" fill="black"/>
<path d="M507.027 318.762C502.828 319.25 502.145 319.641 501.852 321.594L501.461 323.938L510.152 323.254C518.16 322.668 519.039 322.766 523.434 325.109C528.902 328.137 529.586 328.137 530.367 326.086C532.32 321.106 519.82 317.199 507.027 318.762Z" fill="black"/>
<path d="M503.903 339.953C503.024 342.199 504.684 344.445 508.59 346.398C515.328 349.914 527.145 347.473 527.828 342.492C528.219 339.953 525.68 339.562 522.75 341.809C519.625 344.152 512.301 343.664 508.492 340.832C504.586 337.902 504.684 338 503.903 339.953Z" fill="black"/>
<path d="M514.059 371.398C512.887 371.594 512.496 372.277 512.887 373.547C513.278 374.914 512.692 375.598 510.055 376.477C506.246 377.648 503.024 377.16 496.969 374.23C493.844 372.668 492.575 372.473 491.696 373.352C490.133 374.914 491.989 376.867 498.043 379.895C503.61 382.629 508.883 383.02 513.668 381.066C517.868 379.211 519.625 377.062 518.844 374.133C518.258 371.594 516.793 370.715 514.059 371.398Z" fill="black"/>
<path d="M550.289 518.762C547.457 522.082 547.164 524.914 549.606 527.453C552.145 530.188 554.293 530.383 558.297 528.332C563.961 525.402 561.325 517.102 554.684 517.102C553.121 517.102 551.071 517.883 550.289 518.762Z" fill="black"/>
<path d="M478.219 532.727C476.949 533.508 476.754 537.707 476.852 559.289C476.949 573.449 477.535 591.418 478.121 599.23L479.293 613.488L476.07 616.906C474.313 618.664 470.113 623.449 466.793 627.453C463.473 631.457 455.856 640.734 449.899 647.961C417.867 686.633 397.164 705.48 375.68 715.539C364.059 721.008 359.762 721.691 348.531 719.836C315.817 714.563 277.926 708.41 268.746 707.043C262.887 706.066 250.582 704.113 241.403 702.551C232.32 700.988 212.106 697.766 196.481 695.324C114.254 682.629 117.281 683.02 116.305 685.461C116.012 686.242 116.695 688.586 117.77 690.734C119.723 694.445 128.121 716.906 130.563 724.621C131.735 728.332 151.363 781.164 158.59 799.816C160.445 804.602 162.789 811.047 163.863 813.977C164.938 816.906 169.43 826.574 173.824 835.461L181.832 851.574L190.621 853.723C195.504 854.895 204.488 856.75 210.641 857.824C216.793 858.898 233.981 861.926 248.727 864.66C263.473 867.297 280.856 870.422 287.301 871.594C293.746 872.668 309.176 875.598 321.481 877.941C333.883 880.383 355.367 884.582 369.332 887.219C423.043 897.375 462.203 904.895 465.426 905.773C468.356 906.555 472.067 905.48 496.676 896.789C512.008 891.418 528.121 885.949 532.418 884.68C536.715 883.313 550.778 878.82 563.668 874.621C597.067 863.586 615.426 857.824 647.653 848.156C676.461 839.465 679.391 838.098 674.508 835.461C673.336 834.777 647.653 829.309 617.574 823.254C587.399 817.199 558.297 811.242 552.926 810.07C547.555 808.898 541.207 807.531 538.766 807.141C536.324 806.652 526.949 804.699 517.77 802.746C486.227 796.008 479.195 795.129 479.195 797.863C479.195 799.719 481.637 800.891 487.496 801.77C494.528 802.746 527.535 809.289 556.344 815.441C570.016 818.371 593.551 823.156 608.59 826.184C623.629 829.211 642.672 833.117 650.973 834.875L665.914 838L648.043 843.078C605.367 855.285 518.453 883.801 479.293 898.449C475.875 899.816 472.75 900.598 472.36 900.402C471.969 900.207 470.895 897.18 470.016 893.859C469.137 890.441 466.207 880.676 463.57 872.082C460.934 863.488 457.223 850.5 455.27 843.273C449.801 823.059 431.637 759.191 427.828 746.594C425.875 740.441 423.629 734.582 422.75 733.703C421.578 732.531 414.352 730.969 396.676 728.039C383.297 725.793 372.164 723.84 371.969 723.645C371.774 723.449 375.094 721.496 379.488 719.348C404.879 706.555 423.434 688.684 467.672 634.289C471.774 629.211 476.07 623.938 477.145 622.57C478.121 621.203 479.293 620.324 479.586 620.617C479.781 620.91 481.442 629.895 483.102 640.637C488.375 673.84 493.063 695.52 500.778 722.57C502.926 729.992 504.488 736.242 504.195 736.535C504 736.828 500.778 736.535 497.067 735.949C491.012 735.07 482.516 734.387 479.488 734.777C478.024 734.875 477.828 737.414 479.098 738.195C479.586 738.488 484.274 739.172 489.547 739.758C500.192 740.93 517.867 744.738 523.336 746.984C525.192 747.863 527.047 748.156 527.438 747.863C529.977 745.324 524.801 741.516 516.403 739.855C509.86 738.586 510.738 740.246 504.098 716.32C499.313 698.938 492.281 666.613 489.059 646.984C484.274 618.176 482.906 601.672 482.418 567.199C481.93 533.02 481.637 530.676 478.219 532.727ZM170.602 696.301C190.719 699.328 221.481 704.113 238.961 707.043C256.442 709.875 276.852 713.195 284.371 714.367C307.809 717.98 363.278 726.965 368.356 727.941C371.09 728.527 379 729.797 385.934 730.969C392.965 732.043 403.317 733.898 408.981 734.973L419.332 737.023L421.383 743.078C422.555 746.301 425.485 756.066 427.926 764.66C430.367 773.254 433.59 784.68 435.25 790.051C436.813 795.422 439.645 805.285 441.5 812.023C444.332 822.375 453.805 856.359 455.465 862.219C455.953 863.879 455.465 863.977 450.778 863.293C447.848 863 437.203 861.145 426.949 859.387C406.832 855.773 383.981 852.063 368.16 849.621C362.692 848.84 349.313 846.398 338.375 844.348C317.086 840.148 308.883 838.781 235.543 826.672C209.274 822.375 183.59 818.176 178.707 817.297C169.918 815.832 169.625 815.637 168.746 812.707C168.258 810.949 161.91 793.957 154.684 774.914C147.457 755.871 140.133 736.047 138.375 730.969C136.52 725.891 132.516 714.66 129.391 706.066C126.266 697.473 123.727 690.246 123.727 689.855C123.727 689.172 122.848 689.074 170.602 696.301Z" fill="black"/>
<path d="M254 550.012C254.391 551.574 256.246 555.969 258.102 559.973C261.129 566.516 261.617 567.004 263.18 565.832C264.645 564.563 264.742 564.66 263.473 566.125C262.301 567.688 263.082 569.055 270.602 578.82C275.289 584.875 283.688 595.52 289.352 602.551C295.016 609.484 300.289 616.516 301.168 618.078C302.633 621.008 302.633 621.008 298.239 625.207C290.035 632.922 289.059 635.656 293.063 640.539L295.309 643.469L291.012 651.77C283.395 666.613 283.395 676.965 291.012 688.293C295.7 695.227 303.317 700.988 310.641 703.137C319.43 705.773 340.524 704.406 345.407 700.891C350.387 697.277 354.293 685.461 351.071 683.508C349.41 682.434 346.383 686.828 346.383 690.344C346.383 696.984 339.254 699.719 321.969 699.719C314.84 699.719 312.887 699.328 307.809 696.887C297.164 691.809 290.133 681.359 290.328 670.91C290.524 663.781 293.551 655.383 298.141 649.426C299.996 646.984 301.461 644.543 301.461 643.957C301.461 643.371 300.192 641.613 298.532 640.148C296.969 638.684 295.602 636.731 295.602 635.949C295.602 635.168 298.043 632.238 301.168 629.406C305.563 625.402 306.832 624.621 307.809 625.695C308.492 626.379 314.938 634.387 322.262 643.566C337.985 663.293 349.117 674.914 355.367 678.234C362.496 681.945 363.082 680.188 358.102 670.617C354.196 663 354.098 662.707 355.563 659.777C356.735 657.531 356.93 656.262 356.051 654.113C354.782 650.598 348.824 640.734 344.723 635.363C342.086 631.848 341.5 630.188 341.5 626.086C341.5 620.129 339.938 613.977 337.789 611.535C335.934 609.387 328.512 609.289 320.992 611.34C318.063 612.121 315.133 612.805 314.547 612.805C313.864 612.805 305.66 602.356 296.188 589.563C270.309 554.699 271.578 556.262 263.375 551.574C254.586 546.594 253.121 546.398 254 550.012ZM334.567 615.539C335.055 616.516 336.032 621.008 336.617 625.5C337.887 634.68 338.278 635.656 343.453 642.59C345.407 645.227 348.336 649.523 349.703 652.063L352.438 656.652L349.215 658.606L346.09 660.559L338.473 648.938C333.688 641.516 331.051 636.731 331.344 635.559C331.735 634.289 330.074 631.945 326.168 627.844C320.602 621.984 317.282 617.199 318.258 616.223C318.746 615.734 328.024 614.172 331.93 613.879C332.907 613.879 334.078 614.563 334.567 615.539Z" fill="black"/>
<path d="M537.008 585.07C533.199 586.633 532.028 590.344 534.274 593.762C537.301 598.449 544.43 597.863 546.774 592.785C549.215 587.316 543.16 582.434 537.008 585.07Z" fill="black"/>
<path d="M308.883 650.5C308.004 652.844 309.567 654.992 318.063 662.805C325.973 670.227 334.86 675.891 336.617 674.816C338.668 673.547 337.399 671.496 333.199 669.055C330.758 667.59 324.801 662.512 319.821 657.727C314.84 652.844 310.543 648.937 310.153 648.937C309.762 648.937 309.176 649.621 308.883 650.5Z" fill="black"/>
<path d="M303.414 669.934C302.73 670.812 302.34 671.594 302.535 671.691C302.73 671.887 304.488 673.059 306.344 674.328C308.199 675.598 312.105 678.625 315.035 680.969C324.312 688.391 332.711 691.613 332.711 687.609C332.711 686.926 329.879 684.777 326.461 682.727C322.945 680.773 317.477 676.672 314.156 673.742C308.004 668.273 305.562 667.395 303.414 669.934Z" fill="black"/>
<path d="M574.215 754.309L565.328 763L567.574 767.687C570.504 773.742 571.48 774.816 577.145 778.625C581.832 781.75 584.664 782.531 584.664 780.871C584.664 780.383 581.539 776.77 577.828 772.961C569.918 764.855 569.723 766.516 580.074 754.992C586.227 748.254 587.496 745.52 584.371 745.617C583.688 745.715 579.195 749.621 574.215 754.309Z" fill="black"/>
<path d="M556.344 758.703C556.344 761.633 559.566 765.734 561.031 764.758C562.691 763.781 562.496 761.145 560.641 758.508C558.688 755.676 556.344 755.773 556.344 758.703Z" fill="black"/>
</g>
<defs>
<clipPath id="clip0_140_282">
<rect width="1080" height="1080" fill="white"/>
</clipPath>
</defs>
</svg>
