<svg width="1080" height="1080" viewBox="0 0 1080 1080" fill="none" xmlns="http://www.w3.org/2000/svg">
<g clip-path="url(#clip0_138_25)">
<rect width="1080" height="1080" fill="white"/>
<path d="M525 79L795 187L885 403L795 619L525 727L255 619L165 403L255 187L525 79Z" stroke="black" stroke-width="1.66667"/>
<path d="M525 403V79" stroke="black" stroke-width="0.833333"/>
<path d="M525 403L795 187" stroke="black" stroke-width="0.833333"/>
<path d="M525 403H885" stroke="black" stroke-width="0.833333"/>
<path d="M525 403L795 619" stroke="black" stroke-width="0.833333"/>
<path d="M525 403V727" stroke="black" stroke-width="0.833333"/>
<path d="M256 187L254 619" stroke="black" stroke-width="0.833333"/>
<path d="M794 193L792 625" stroke="black" stroke-width="0.833333"/>
<path d="M525 403L255 619" stroke="black" stroke-width="0.833333"/>
<path d="M525 403H165" stroke="black" stroke-width="0.833333"/>
<path d="M525 403L255 187" stroke="black" stroke-width="0.833333"/>
<path d="M808 187L265 186.802" stroke="black" stroke-width="0.833333"/>
<path d="M799 615.324L256 615.127" stroke="black" stroke-width="0.833333"/>
<path d="M877 403L526 722" stroke="black" stroke-width="0.833333"/>
<path d="M521 79L170 398" stroke="black" stroke-width="0.833333"/>
<path d="M877 403L518.91 79" stroke="black" stroke-width="0.833333"/>
<path d="M530.21 733.743L166.5 404" stroke="black" stroke-width="0.833333"/>
<path d="M519.805 98.5552C530.605 100.872 541.239 93.9945 543.555 83.1945C545.872 72.3944 538.994 61.7613 528.194 59.4448C517.394 57.1282 506.761 64.0055 504.445 74.8055C502.128 85.6056 509.005 96.2387 519.805 98.5552Z" fill="#800080"/>
<path d="M521.873 84L527.294 73.2756V73.1809H521.044V71.8788H528.809V73.2519L523.412 84H521.873Z" fill="white"/>
<path d="M794 203C805.046 203 814 194.046 814 183C814 171.954 805.046 163 794 163C782.954 163 774 171.954 774 183C774 194.046 782.954 203 794 203Z" fill="#FFA500"/>
<path d="M525 426C538.807 426 550 414.807 550 401C550 387.193 538.807 376 525 376C511.193 376 500 387.193 500 401C500 414.807 511.193 426 525 426Z" fill="#FFFF00" stroke="black" stroke-width="1.66667"/>
<path d="M790.836 175.879V188H789.369V177.418H789.298L786.338 179.383V177.891L789.369 175.879H790.836ZM798.418 188.166C797.637 188.166 796.94 188.032 796.329 187.763C795.721 187.495 795.238 187.122 794.879 186.645C794.524 186.163 794.33 185.605 794.299 184.97H795.79C795.822 185.36 795.956 185.698 796.193 185.982C796.429 186.262 796.739 186.479 797.122 186.633C797.505 186.787 797.929 186.864 798.394 186.864C798.915 186.864 799.377 186.773 799.779 186.591C800.182 186.41 800.497 186.157 800.726 185.834C800.955 185.51 801.07 185.135 801.07 184.709C801.07 184.263 800.959 183.871 800.738 183.531C800.517 183.188 800.194 182.92 799.768 182.727C799.341 182.533 798.821 182.437 798.205 182.437H797.234V181.134H798.205C798.686 181.134 799.109 181.048 799.472 180.874C799.839 180.7 800.125 180.456 800.33 180.14C800.539 179.824 800.643 179.454 800.643 179.027C800.643 178.617 800.553 178.26 800.371 177.956C800.19 177.652 799.933 177.416 799.602 177.246C799.274 177.076 798.888 176.991 798.442 176.991C798.024 176.991 797.629 177.068 797.258 177.222C796.891 177.372 796.591 177.591 796.358 177.879C796.126 178.163 795.999 178.507 795.98 178.909H794.559C794.583 178.274 794.774 177.717 795.133 177.24C795.492 176.759 795.962 176.384 796.542 176.116C797.126 175.847 797.767 175.713 798.465 175.713C799.215 175.713 799.858 175.865 800.395 176.169C800.932 176.469 801.344 176.865 801.632 177.358C801.92 177.852 802.064 178.384 802.064 178.956C802.064 179.639 801.884 180.221 801.525 180.702C801.17 181.184 800.687 181.517 800.075 181.703V181.797C800.841 181.924 801.439 182.249 801.869 182.774C802.299 183.295 802.514 183.94 802.514 184.709C802.514 185.368 802.334 185.96 801.975 186.485C801.62 187.006 801.135 187.416 800.519 187.716C799.904 188.016 799.203 188.166 798.418 188.166Z" fill="white"/>
<path d="M877 421C888.046 421 897 412.046 897 401C897 389.954 888.046 381 877 381C865.954 381 857 389.954 857 401C857 412.046 865.954 421 877 421Z" fill="#FF0000"/>
<path d="M877.079 407.166C876.582 407.158 876.085 407.063 875.588 406.882C875.091 406.7 874.637 406.394 874.226 405.964C873.816 405.53 873.487 404.944 873.238 404.206C872.989 403.465 872.865 402.533 872.865 401.413C872.865 400.34 872.966 399.389 873.167 398.56C873.368 397.728 873.66 397.027 874.043 396.459C874.426 395.887 874.887 395.453 875.428 395.157C875.972 394.861 876.586 394.713 877.269 394.713C877.947 394.713 878.551 394.849 879.08 395.121C879.612 395.39 880.046 395.765 880.382 396.246C880.717 396.727 880.934 397.282 881.033 397.909H879.589C879.454 397.365 879.194 396.913 878.807 396.554C878.421 396.195 877.908 396.015 877.269 396.015C876.329 396.015 875.59 396.424 875.049 397.24C874.512 398.057 874.242 399.203 874.238 400.679H874.333C874.554 400.344 874.816 400.058 875.12 399.821C875.428 399.58 875.767 399.395 876.138 399.264C876.509 399.134 876.902 399.069 877.316 399.069C878.01 399.069 878.646 399.243 879.222 399.59C879.798 399.933 880.259 400.409 880.607 401.016C880.954 401.62 881.127 402.313 881.127 403.094C881.127 403.843 880.96 404.53 880.624 405.153C880.289 405.773 879.817 406.266 879.21 406.633C878.606 406.996 877.896 407.174 877.079 407.166ZM877.079 405.864C877.576 405.864 878.022 405.739 878.417 405.491C878.815 405.242 879.129 404.909 879.358 404.491C879.591 404.072 879.707 403.607 879.707 403.094C879.707 402.593 879.595 402.137 879.37 401.727C879.149 401.312 878.843 400.983 878.452 400.738C878.066 400.494 877.624 400.371 877.127 400.371C876.752 400.371 876.402 400.446 876.079 400.596C875.755 400.742 875.471 400.943 875.227 401.2C874.986 401.456 874.797 401.75 874.658 402.082C874.52 402.409 874.451 402.754 874.451 403.117C874.451 403.599 874.564 404.049 874.789 404.467C875.018 404.885 875.329 405.222 875.724 405.479C876.122 405.735 876.574 405.864 877.079 405.864Z" fill="white"/>
<path d="M788 635C799.046 635 808 626.046 808 615C808 603.954 799.046 595 788 595C776.954 595 768 603.954 768 615C768 626.046 776.954 635 788 635Z" fill="#0000FF"/>
<path d="M785.007 608.879V621H783.54V610.418H783.468L780.509 612.383V610.891L783.54 608.879H785.007ZM792.376 621.166C791.563 621.166 790.845 621.022 790.222 620.734C789.602 620.442 789.119 620.041 788.772 619.532C788.424 619.019 788.253 618.435 788.257 617.78C788.253 617.267 788.353 616.794 788.558 616.36C788.764 615.922 789.044 615.557 789.399 615.265C789.758 614.969 790.158 614.782 790.6 614.703V614.632C790.02 614.482 789.559 614.156 789.215 613.655C788.872 613.15 788.702 612.576 788.706 611.933C788.702 611.317 788.858 610.767 789.174 610.281C789.49 609.796 789.924 609.413 790.476 609.133C791.032 608.853 791.666 608.713 792.376 608.713C793.078 608.713 793.706 608.853 794.258 609.133C794.81 609.413 795.244 609.796 795.56 610.281C795.88 610.767 796.041 611.317 796.045 611.933C796.041 612.576 795.866 613.15 795.519 613.655C795.175 614.156 794.72 614.482 794.151 614.632V614.703C794.589 614.782 794.984 614.969 795.335 615.265C795.686 615.557 795.967 615.922 796.176 616.36C796.385 616.794 796.491 617.267 796.495 617.78C796.491 618.435 796.314 619.019 795.963 619.532C795.615 620.041 795.132 620.442 794.513 620.734C793.897 621.022 793.185 621.166 792.376 621.166ZM792.376 619.864C792.924 619.864 793.398 619.775 793.796 619.597C794.195 619.42 794.503 619.169 794.72 618.846C794.937 618.522 795.047 618.143 795.051 617.709C795.047 617.252 794.929 616.847 794.696 616.496C794.463 616.145 794.146 615.869 793.743 615.667C793.345 615.466 792.889 615.366 792.376 615.366C791.859 615.366 791.397 615.466 790.991 615.667C790.589 615.869 790.271 616.145 790.038 616.496C789.809 616.847 789.697 617.252 789.701 617.709C789.697 618.143 789.801 618.522 790.014 618.846C790.231 619.169 790.541 619.42 790.944 619.597C791.346 619.775 791.824 619.864 792.376 619.864ZM792.376 614.111C792.81 614.111 793.195 614.024 793.53 613.85C793.869 613.677 794.136 613.434 794.329 613.122C794.522 612.811 794.621 612.446 794.625 612.027C794.621 611.617 794.524 611.26 794.335 610.956C794.146 610.648 793.883 610.412 793.548 610.246C793.212 610.076 792.822 609.991 792.376 609.991C791.922 609.991 791.526 610.076 791.186 610.246C790.847 610.412 790.585 610.648 790.399 610.956C790.214 611.26 790.123 611.617 790.127 612.027C790.123 612.446 790.216 612.811 790.405 613.122C790.598 613.434 790.865 613.677 791.204 613.85C791.543 614.024 791.934 614.111 792.376 614.111Z" fill="white"/>
<path d="M524 747C535.046 747 544 738.046 544 727C544 715.954 535.046 707 524 707C512.954 707 504 715.954 504 727C504 738.046 512.954 747 524 747Z" fill="#008000"/>
<path d="M523.973 733.166C523.278 733.166 522.653 733.028 522.096 732.751C521.54 732.475 521.094 732.096 520.759 731.615C520.423 731.134 520.24 730.585 520.208 729.97H521.629C521.684 730.518 521.933 730.972 522.375 731.331C522.82 731.686 523.353 731.864 523.973 731.864C524.47 731.864 524.912 731.747 525.298 731.514C525.689 731.282 525.995 730.962 526.216 730.556C526.441 730.145 526.553 729.682 526.553 729.165C526.553 728.636 526.437 728.165 526.204 727.75C525.975 727.332 525.659 727.003 525.257 726.762C524.854 726.521 524.395 726.399 523.878 726.395C523.507 726.391 523.126 726.448 522.736 726.567C522.345 726.681 522.023 726.829 521.771 727.01L520.398 726.845L521.132 720.879H527.429V722.181H522.363L521.937 725.756H522.008C522.256 725.558 522.568 725.395 522.943 725.264C523.318 725.134 523.708 725.069 524.115 725.069C524.856 725.069 525.517 725.247 526.097 725.602C526.681 725.953 527.139 726.434 527.47 727.046C527.806 727.658 527.974 728.356 527.974 729.141C527.974 729.914 527.8 730.605 527.453 731.213C527.109 731.816 526.636 732.294 526.032 732.645C525.429 732.992 524.742 733.166 523.973 733.166Z" fill="white"/>
<path d="M254 634C265.046 634 274 625.046 274 614C274 602.954 265.046 594 254 594C242.954 594 234 602.954 234 614C234 625.046 242.954 634 254 634Z" fill="#800080"/>
<path d="M251.237 607.879V620H249.769V609.418H249.698L246.739 611.383V609.891L249.769 607.879H251.237ZM254.723 620V618.935L258.724 614.555C259.193 614.042 259.58 613.596 259.884 613.217C260.188 612.835 260.413 612.476 260.559 612.14C260.708 611.801 260.783 611.446 260.783 611.075C260.783 610.649 260.681 610.28 260.476 609.968C260.274 609.656 259.998 609.416 259.647 609.246C259.296 609.076 258.901 608.991 258.463 608.991C257.998 608.991 257.591 609.088 257.244 609.281C256.901 609.471 256.635 609.737 256.445 610.08C256.26 610.424 256.167 610.826 256.167 611.288H254.77C254.77 610.578 254.934 609.954 255.261 609.418C255.589 608.881 256.035 608.463 256.599 608.163C257.167 607.863 257.804 607.713 258.511 607.713C259.221 607.713 259.85 607.863 260.399 608.163C260.947 608.463 261.377 608.867 261.689 609.376C262.001 609.885 262.157 610.451 262.157 611.075C262.157 611.521 262.076 611.957 261.914 612.383C261.756 612.805 261.48 613.277 261.085 613.797C260.695 614.314 260.152 614.946 259.458 615.691L256.735 618.603V618.698H262.37V620H254.723Z" fill="white"/>
<path d="M165 421C176.046 421 185 412.046 185 401C185 389.954 176.046 381 165 381C153.954 381 145 389.954 145 401C145 412.046 153.954 421 165 421Z" fill="#0000FF"/>
<path d="M164.973 406.166C164.278 406.166 163.653 406.028 163.096 405.751C162.54 405.475 162.094 405.096 161.759 404.615C161.423 404.134 161.24 403.585 161.208 402.97H162.629C162.684 403.518 162.933 403.972 163.375 404.331C163.82 404.686 164.353 404.864 164.973 404.864C165.47 404.864 165.912 404.747 166.298 404.514C166.689 404.282 166.995 403.962 167.216 403.556C167.441 403.145 167.553 402.682 167.553 402.165C167.553 401.636 167.437 401.165 167.204 400.75C166.975 400.332 166.659 400.003 166.257 399.762C165.854 399.521 165.395 399.399 164.878 399.395C164.507 399.391 164.126 399.448 163.736 399.567C163.345 399.681 163.023 399.829 162.771 400.01L161.398 399.845L162.132 393.879H168.429V395.181H163.363L162.937 398.756H163.008C163.256 398.558 163.568 398.395 163.943 398.264C164.318 398.134 164.708 398.069 165.115 398.069C165.856 398.069 166.517 398.247 167.097 398.602C167.681 398.953 168.139 399.434 168.47 400.046C168.806 400.658 168.974 401.356 168.974 402.141C168.974 402.914 168.8 403.605 168.453 404.213C168.109 404.816 167.636 405.294 167.032 405.645C166.429 405.992 165.742 406.166 164.973 406.166Z" fill="white"/>
<path d="M256 207C267.046 207 276 198.046 276 187C276 175.954 267.046 167 256 167C244.954 167 236 175.954 236 187C236 198.046 244.954 207 256 207Z" fill="#008000"/>
<path d="M254.973 191.166C254.278 191.166 253.653 191.028 253.096 190.751C252.54 190.475 252.094 190.096 251.759 189.615C251.423 189.134 251.24 188.585 251.208 187.97H252.629C252.684 188.518 252.933 188.972 253.375 189.331C253.82 189.686 254.353 189.864 254.973 189.864C255.47 189.864 255.912 189.747 256.298 189.514C256.689 189.282 256.995 188.962 257.216 188.556C257.441 188.145 257.553 187.682 257.553 187.165C257.553 186.636 257.437 186.165 257.204 185.75C256.975 185.332 256.659 185.003 256.257 184.762C255.854 184.521 255.395 184.399 254.878 184.395C254.507 184.391 254.126 184.448 253.736 184.567C253.345 184.681 253.023 184.829 252.771 185.01L251.398 184.845L252.132 178.879H258.429V180.181H253.363L252.937 183.756H253.008C253.256 183.558 253.568 183.395 253.943 183.264C254.318 183.134 254.708 183.069 255.115 183.069C255.856 183.069 256.517 183.247 257.097 183.602C257.681 183.953 258.139 184.434 258.47 185.046C258.806 185.658 258.974 186.356 258.974 187.141C258.974 187.914 258.8 188.605 258.453 189.213C258.109 189.816 257.636 190.294 257.032 190.645C256.429 190.992 255.742 191.166 254.973 191.166Z" fill="white"/>
<path d="M525.37 390.57C526.116 390.576 526.862 390.718 527.607 390.996C528.353 391.274 529.034 391.736 529.649 392.381C530.265 393.02 530.759 393.893 531.132 395C531.505 396.106 531.691 397.494 531.691 399.163C531.691 400.779 531.537 402.214 531.23 403.469C530.928 404.718 530.49 405.771 529.916 406.63C529.347 407.488 528.655 408.139 527.838 408.583C527.027 409.027 526.11 409.249 525.086 409.249C524.068 409.249 523.16 409.047 522.361 408.645C521.567 408.237 520.916 407.671 520.407 406.949C519.904 406.221 519.582 405.378 519.44 404.419H521.606C521.801 405.254 522.189 405.943 522.769 406.488C523.355 407.026 524.127 407.295 525.086 407.295C526.489 407.295 527.596 406.683 528.406 405.458C529.223 404.233 529.632 402.501 529.632 400.264H529.489C529.158 400.761 528.764 401.19 528.309 401.551C527.853 401.913 527.347 402.191 526.791 402.386C526.234 402.581 525.642 402.679 525.015 402.679C523.973 402.679 523.018 402.422 522.148 401.907C521.283 401.386 520.591 400.673 520.07 399.767C519.555 398.856 519.298 397.814 519.298 396.642C519.298 395.529 519.546 394.511 520.043 393.588C520.547 392.659 521.251 391.919 522.156 391.369C523.068 390.818 524.139 390.552 525.37 390.57ZM525.37 392.523C524.624 392.523 523.953 392.709 523.355 393.082C522.763 393.449 522.293 393.946 521.943 394.574C521.6 395.195 521.428 395.884 521.428 396.642C521.428 397.4 521.594 398.089 521.926 398.711C522.263 399.326 522.722 399.817 523.302 400.184C523.888 400.545 524.553 400.726 525.299 400.726C525.861 400.726 526.385 400.616 526.871 400.397C527.356 400.172 527.779 399.868 528.14 399.483C528.507 399.092 528.794 398.651 529.001 398.16C529.208 397.663 529.312 397.145 529.312 396.607C529.312 395.896 529.14 395.23 528.797 394.609C528.46 393.988 527.992 393.484 527.394 393.1C526.802 392.715 526.128 392.523 525.37 392.523Z" fill="black"/>
<path d="M638.233 128.551C629.941 129.818 623.377 133.042 613.473 140.873C602.878 149.395 598.732 151.583 593.78 151.583C589.635 151.583 584.683 154.232 579.961 158.954C572.936 166.094 570.172 185.096 574.203 198.339C578.349 211.813 585.949 219.299 598.041 221.832C610.018 224.366 611.746 230.93 604.375 245.786C601.842 250.853 599.769 255.805 599.769 256.726C599.769 258.684 604.491 262.83 610.018 265.824C613.819 267.897 614.51 269.164 617.849 279.989C620.613 289.087 624.298 291.045 640.306 291.851C651.361 292.426 651.707 292.426 653.319 295.651C656.429 301.639 655.622 303.252 647.907 307.167C635.354 313.386 625.105 320.871 613.588 332.273C607.485 338.376 601.266 345.516 599.999 348.05C597.35 353.232 593.32 369.815 589.404 391.696C583.877 422.559 578.003 439.603 566.717 457.684C557.504 472.309 549.443 482.444 537.236 494.536C528.599 503.173 526.18 504.9 525.144 503.749C523.532 501.791 516.622 485.783 512.131 473.691C507.87 462.175 503.724 445.937 500.73 429.239C496.238 404.479 489.789 382.368 483.225 370.046C475.739 355.996 461.69 346.207 439.694 339.988C428.178 336.764 427.832 336.188 431.632 324.902C434.511 316.38 439.118 311.083 444.531 309.931C453.168 308.204 460.538 305.325 462.956 302.791C464.914 300.603 465.605 298.185 466.181 290.584C466.872 280.68 467.793 277.916 471.824 274.346C475.624 270.891 474.933 266.285 470.327 263.406C462.956 258.799 461.344 251.429 464.569 237.955C466.987 227.936 466.987 214.462 464.569 207.091C462.15 199.836 454.089 190.623 446.143 186.017C438.657 181.756 428.984 181.41 419.886 185.096C415.164 187.053 410.212 187.744 397.66 188.32C381.767 189.011 381.422 189.126 373.821 193.387C368.293 196.497 363.111 200.988 354.474 210.316C341.576 224.135 339.618 225.287 327.411 225.287C315.895 225.402 308.294 230.239 302.651 241.295C299.542 247.513 297.699 259.145 298.62 267.091C299.772 276.419 306.797 290.354 313.707 296.687C323.956 306.131 342.152 311.889 366.911 313.501C373.361 313.962 378.658 314.768 378.658 315.344C378.658 318.453 374.397 324.902 370.712 327.205C368.409 328.818 358.965 332.848 349.752 336.303C328.217 344.249 314.858 351.159 303.227 360.372C285.607 374.307 277.776 387.205 263.496 425.669C247.028 469.891 235.627 488.432 199.12 530.351C177.355 555.341 173.9 560.639 170.675 573.306C169.409 578.028 169.063 582.75 169.524 587.011L170.1 593.575L165.263 595.763C161.117 597.49 156.971 597.836 135.206 598.066C121.271 598.181 108.718 598.527 107.336 598.872C103.536 599.909 100.772 605.437 102.269 609.237C103.651 612.922 108.949 615.686 114.592 615.686C117.125 615.686 122.077 616.492 125.877 617.414C133.248 619.371 139.121 618.795 139.121 616.147C139.121 613.383 131.405 610.849 120.235 609.813C109.524 608.776 106.53 607.51 108.949 605.091C109.755 604.285 118.737 603.709 136.472 603.364C159.274 602.903 163.305 602.558 167.796 600.6C170.56 599.448 172.979 598.412 173.209 598.412C173.324 598.412 175.397 601.291 177.7 604.746C182.422 611.771 188.41 616.953 195.55 620.177L200.387 622.365L192.671 626.626C180.925 633.306 170.675 637.221 155.704 640.907C131.751 646.895 101.348 651.156 96.5112 649.313C94.4383 648.507 94.0928 648.047 95.3595 647.586C97.4325 646.895 120.81 641.482 126.108 640.446C128.181 639.985 129.908 639.179 129.908 638.603C129.908 636.991 116.549 637.567 103.421 639.755C94.8989 641.252 90.6379 641.482 89.1408 640.676C87.1831 639.755 87.5285 639.294 92.5957 637.567C95.705 636.415 105.494 633.767 114.246 631.694C125.532 629.045 131.175 627.202 133.248 625.36L136.242 622.711L132.211 622.596C130.023 622.596 122.192 623.632 114.937 625.014C107.682 626.396 98.8144 628.008 95.3595 628.584C84.5343 630.542 78.0853 639.755 83.8434 645.052C85.1101 646.204 86.1466 648.277 86.1466 649.659C86.1466 651.156 86.8376 652.768 87.6437 653.344C92.135 657.029 123.229 655.532 146.031 650.81C172.057 645.283 185.186 639.525 204.879 625.129C206.03 624.208 210.867 623.056 215.704 622.481C230.675 620.638 235.166 617.759 253.592 599.218C262.46 590.235 272.018 580.216 274.667 577.107C280.885 569.736 281.116 572.27 275.473 585.744C268.678 602.327 264.187 622.941 258.314 665.206C252.786 704.591 248.179 728.545 242.191 747.662C233.669 774.955 210.521 829.887 192.326 866.163C176.203 898.409 167.221 924.32 165.033 945.049C162.96 963.936 155.474 971.421 117.701 991.805C94.5534 1004.36 92.0199 1005.85 85.8011 1011.73C76.9336 1020.02 74.5152 1029.58 79.6975 1035.68L82.4614 1038.91L109.409 1039.83C124.15 1040.29 140.618 1040.52 146.031 1040.29C161.578 1039.6 167.566 1035.45 176.318 1018.87C178.622 1014.38 181.386 1010.69 182.307 1010.69C184.034 1010.69 187.489 1020.48 187.489 1025.32C187.489 1029.46 190.483 1034.53 193.478 1035.34C202.921 1037.75 215.934 1033.61 221.462 1026.24C225.723 1020.71 227.45 1014.26 229.523 995.721C232.057 973.379 231.711 974.3 237.469 970.961C244.84 966.585 246.107 964.742 249.792 951.729C251.749 945.28 255.78 934.109 258.89 927.199C261.999 920.174 266.03 910.616 267.872 905.894C269.83 901.173 274.321 890.462 277.891 882.286C321.192 783.132 334.896 745.704 347.564 691.117C355.05 658.872 354.704 660.023 357.814 660.023C363.226 660.023 377.276 686.396 386.719 714.15C395.472 739.715 402.151 755.838 408.6 767.124C412.285 773.458 417.122 782.556 419.54 787.277C421.959 791.999 428.062 803.63 433.245 813.189C438.427 822.632 443.264 831.615 443.84 832.997C445.682 837.488 468.715 874.455 482.073 894.608C489.213 905.434 496.929 917.871 499.233 922.362C504.76 933.418 507.294 936.758 513.282 940.212C517.889 942.861 518.234 943.322 517.658 947.007C516.622 952.88 511.9 962.439 507.524 967.506C502.112 973.725 488.983 983.168 476.43 989.962C461.114 998.254 458.12 1000.79 458.12 1005.39C458.12 1012.65 465.029 1016.45 478.273 1016.45H485.298L486.68 1021.63C489.098 1030.84 489.213 1030.84 528.944 1030.84C547.946 1030.84 564.875 1030.5 566.602 1030.04C571.554 1028.54 576.621 1023.59 580.191 1016.56C581.919 1012.88 584.337 1009.19 585.374 1008.39C587.101 1007.01 587.562 1007.01 588.829 1008.73C589.635 1009.89 591.017 1014.26 591.823 1018.41C593.665 1027.39 596.199 1029.69 603.224 1028.77C610.594 1027.85 617.274 1023.13 620.959 1016.56C623.723 1011.38 624.298 1008.16 626.026 991.114L627.984 971.537L634.087 966.239C637.427 963.36 640.651 959.905 641.342 958.638C644.567 952.765 665.987 887.468 673.473 860.866C678.079 844.743 683.492 825.857 685.68 818.947C694.777 789.12 707.676 737.297 712.052 713.574C720.689 665.782 728.405 637.567 733.933 632.96C735.43 631.694 736.005 632.154 737.733 636.53C743.146 650.58 763.76 687.893 776.312 706.434C787.253 722.556 804.181 743.516 819.268 759.639C829.747 770.694 857.501 795.339 878.23 811.807C886.061 818.141 899.535 829.427 908.173 837.027C935.581 860.981 937.539 862.593 951.243 873.994C966.79 886.777 967.596 887.238 976.924 890.347L983.834 892.651L985.792 900.136C989.592 914.762 987.519 946.316 981.531 968.082C974.276 994.223 975.773 1001.48 988.556 1001.48C991.665 1001.48 993.738 1000.44 997.653 996.757C1008.48 986.853 1035.54 948.274 1039.92 936.527C1041.65 932.151 1042.11 928.236 1041.99 920.865C1041.65 908.773 1041.76 904.627 1042.45 903.936C1042.68 903.706 1045.56 904.743 1048.79 906.355C1055.7 909.925 1059.73 910.155 1064.68 907.046C1068.94 904.512 1070.67 901.518 1074.35 890.002L1077 881.595L1074.24 876.298C1072.16 872.497 1068.48 868.927 1060.99 863.284C1046.14 852.229 1036.58 846.24 1030.13 843.937C1025.98 842.555 1024.03 841.058 1022.99 838.755C1020.8 833.457 1011.59 823.669 993.853 807.661C967.596 784.053 953.892 773.112 911.167 741.904C895.274 730.272 878.461 713.459 870.169 700.906C861.647 688.123 849.67 665.091 844.603 651.847C836.657 630.772 831.244 602.212 830.899 578.719L830.669 564.439L836.081 557.529C848.058 542.328 855.428 526.09 857.732 509.852C863.144 471.043 863.49 454.114 859.344 425.093C858.423 418.068 857.271 409.316 856.926 405.516C856.119 397.569 846.791 377.071 833.317 353.808C815.813 323.866 809.824 317.301 791.744 308.549C769.633 297.724 751.552 292.542 726.677 289.547C713.549 287.935 712.743 287.475 708.827 278.146L707.1 273.885L711.706 269.509C718.271 263.06 725.756 252.35 730.363 242.446C735.199 232.197 738.539 215.153 737.503 205.594C735.66 186.823 721.265 163.445 707.445 156.766C702.148 154.117 700.075 153.772 692.705 154.117L684.183 154.462L680.843 149.971C671.169 136.728 663.223 130.739 652.743 129.127C649.864 128.781 646.755 128.206 645.834 128.09C644.912 127.86 641.458 128.09 638.233 128.551ZM619.346 215.038C627.293 217.456 634.548 218.032 644.106 216.765L649.864 215.959L653.895 221.832C660.92 232.312 669.096 237.955 677.388 237.955C678.54 237.955 683.031 235.997 687.292 233.694C695.008 229.433 695.238 229.433 697.541 231.506C699.269 233.118 699.96 235.076 699.96 238.761C699.96 242.792 699.269 244.519 695.929 248.204C693.741 250.623 691.898 253.387 691.898 254.423C691.898 256.957 696.966 269.855 702.609 281.716C707.33 291.736 707.56 292.311 705.833 295.651C703.76 300.142 698.463 305.44 693.856 307.858C688.328 310.622 677.158 311.198 669.903 308.895C663.799 306.937 663.684 306.822 661.496 300.142C660.344 296.342 658.156 291.966 656.544 290.238C653.895 287.359 653.319 287.244 645.488 287.935C636.506 288.626 629.25 287.475 626.602 284.826C625.68 284.02 624.183 280.219 623.262 276.419C620.844 267.321 619.577 265.479 612.552 262.139C609.327 260.527 606.679 258.799 606.679 258.339C606.679 257.763 608.521 254.078 610.709 250.047C616.122 240.373 616.928 233.809 613.588 224.711C610.364 215.959 609.558 212.619 610.824 212.619C611.4 212.619 615.201 213.771 619.346 215.038ZM456.507 239.797C455.701 252.696 455.701 253.271 458.696 259.375C460.423 262.945 463.187 266.4 465.145 267.552C469.29 270.085 469.29 271.122 465.145 275.152C461.344 278.722 459.732 282.753 458.696 292.426C457.659 301.409 455.816 303.021 444.876 304.864C440.039 305.67 434.511 307.282 432.784 308.434C428.178 311.198 424.953 317.992 422.65 329.854C420.692 339.643 420.692 339.758 416.661 340.795C408.715 342.867 397.084 341.37 388.562 337.109C384.301 335.036 380.501 332.618 380.27 331.812C379.925 331.006 380.961 327.781 382.458 324.672C387.986 313.847 392.593 293.233 390.75 287.475C390.289 286.208 389.023 285.171 387.756 285.171C382.228 285.171 374.051 278.262 374.051 273.655C374.051 271.928 375.203 269.509 376.815 268.012C379.464 265.594 380.04 265.479 385.568 266.63C394.205 268.473 400.539 268.242 409.291 265.479C423.456 261.218 435.663 251.429 450.174 233.003C452.937 229.318 455.701 226.439 456.277 226.439C456.853 226.439 456.968 232.082 456.507 239.797ZM738.654 298.415C756.619 301.755 780.228 309.01 790.362 314.422C799.575 319.259 807.176 327.09 817.195 342.176C826.408 355.996 840.112 382.483 843.797 393.769C848.058 406.552 853.125 443.058 853.125 460.793C853.125 470.697 848.288 512.501 846.331 519.756C844.834 525.284 831.82 548.201 825.486 556.378C822.838 559.833 818.231 564.209 815.237 566.282C810.4 569.506 809.248 569.736 802.339 569.391C792.205 568.815 784.949 565.015 779.767 557.644C773.779 548.892 774.7 538.412 783.913 514.804C787.022 506.513 791.398 493.384 793.471 485.553C796.926 472.309 797.272 469.776 797.272 453.884C797.272 434.306 796.005 426.014 790.247 407.243C782.761 383.059 774.239 369.24 766.869 369.24C762.262 369.24 762.262 371.543 766.754 374.767C774.585 380.641 783.452 406.091 787.022 433.039C790.362 458.49 787.598 477.146 776.082 507.204C767.214 530.121 765.602 536.455 765.602 547.165C765.602 556.378 765.487 556.838 762.262 559.602C760.074 561.33 755.583 563.172 750.401 564.324C739.575 566.742 705.488 571.464 687.868 573.076C674.624 574.343 673.588 574.228 662.532 571.464C649.289 568.009 646.409 566.282 642.609 559.142C640.076 554.42 639.845 553.268 640.536 541.407C640.882 534.382 641.803 522.29 642.494 514.344C645.488 481.638 643.876 417.838 639.385 396.533C637.197 386.053 633.281 377.992 630.056 377.531C626.486 376.955 625.68 380.871 628.329 386.168C629.596 388.587 631.093 392.387 631.899 394.575C634.548 402.867 636.736 428.202 637.427 456.993C638.003 483.25 637.887 486.935 636.16 489.584C629.941 499.027 608.636 524.823 601.151 531.733C589.289 542.789 582.495 547.856 564.069 559.487C542.764 572.961 528.944 580.562 519.616 584.132C512.591 586.78 510.403 587.126 501.305 586.665C495.547 586.32 489.674 585.514 488.177 584.708C485.298 583.095 476.891 570.658 475.739 566.397C475.394 564.9 475.739 562.366 476.661 560.869C477.467 559.257 488.983 548.892 502.342 537.606C527.332 516.647 554.51 490.275 566.602 475.304C580.422 458.145 587.562 438.682 597.466 392.272C604.145 360.487 609.788 346.553 620.613 334.23C629.711 324.096 648.598 311.659 655.047 311.659C656.429 311.659 658.847 312.695 660.459 313.962C665.296 317.762 675.2 320.065 682.57 319.259C692.589 318.108 700.075 313.847 708.827 304.058C714.816 297.494 717.349 295.536 719.768 295.536C721.38 295.536 729.902 296.803 738.654 298.415ZM374.973 338.722C376.7 340.334 381.422 343.328 385.568 345.286C396.047 350.353 408.485 351.044 420.347 347.244L428.638 344.595L436.124 347.244C450.058 352.08 460.538 357.954 468.024 365.209C474.703 371.773 475.279 372.694 479.194 384.786C481.382 391.811 484.492 403.673 486.104 411.274C487.716 418.874 490.711 432.809 492.783 442.367C497.505 464.709 503.954 485.783 510.518 500.179C513.397 506.513 515.701 512.271 515.701 512.962C515.701 515.035 498.426 530.006 484.146 540.37C476.661 545.783 470.442 550.044 470.212 549.813C470.097 549.583 467.448 545.552 464.338 540.831L458.696 532.194L458.811 498.797C458.926 479.219 459.502 462.636 460.308 458.605C460.999 454.92 461.92 443.173 462.266 432.694C463.072 412.31 462.496 408.395 458.12 408.395C454.78 408.395 453.513 411.965 453.513 420.832C453.513 428.087 452.362 445.246 448.792 491.311C448.101 499.833 447.755 519.296 447.87 534.497C448.216 557.069 447.87 562.596 446.603 564.784C443.149 570.312 430.826 574.458 410.558 577.107C403.418 578.028 395.932 584.247 395.932 589.314C395.932 591.502 396.508 592.654 397.66 592.654C399.272 592.654 399.272 592.999 397.66 596.109L395.817 599.563H383.38C375.318 599.563 366.796 598.757 359.541 597.26C320.156 589.084 294.82 576.301 291.135 562.712C289.292 556.032 290.214 552.462 296.087 542.098C308.755 519.986 316.125 497.3 329.829 437.761C335.012 415.65 335.242 412.425 332.017 412.425C327.872 412.425 323.841 423.481 318.889 448.471C316.355 461.139 313.131 475.534 311.749 480.486C305.76 502.482 291.48 533.806 283.649 542.098C279.043 546.934 278.467 548.316 278.467 552.808C278.467 557.76 277.891 558.681 267.872 569.852C261.999 576.416 251.174 587.702 243.803 594.957C227.565 610.964 220.425 615.225 211.328 614.074C203.381 612.922 195.896 608.892 189.562 602.212C181.731 593.69 180.119 590.005 180.234 580.447C180.349 567.433 182.422 564.094 211.558 528.048C228.487 507.088 245.185 482.213 255.089 463.096C259.005 455.496 266.836 437.991 272.594 424.172C287.91 387.435 290.789 382.138 303.227 369.7C313.476 359.336 323.035 352.771 334.321 348.165C345.261 343.789 367.718 335.958 369.79 335.958C370.942 335.843 373.245 337.109 374.973 338.722ZM630.978 538.988C629.25 551.311 629.366 558.566 631.323 563.172C632.705 566.627 634.317 568.124 642.264 574.113L645.143 576.186L637.427 612.346C628.444 654.265 627.408 659.102 623.377 680.753C621.765 689.62 619.922 699.178 619.346 702.058C618.655 704.937 616.698 715.992 614.74 726.817C605.642 778.525 579.5 885.165 574.779 889.887C573.166 891.499 532.284 829.887 517.198 803.4C485.874 747.892 472.4 708.391 458.811 630.657C457.083 621.444 455.816 613.613 455.816 613.153C455.816 612.807 457.544 612.116 459.617 611.655C470.672 609.582 480.116 606.934 485.643 604.631C493.129 601.291 493.474 601.291 494.396 604.285C496.699 611.54 509.021 619.832 519.156 621.099C524.223 621.674 525.259 622.365 532.399 630.196C536.545 634.918 545.182 642.864 551.401 647.931C557.735 652.999 563.263 657.835 563.723 658.757C564.184 659.563 566.026 661.175 567.869 662.327C570.518 664.054 571.554 664.169 574.433 662.902C578.809 661.06 579.5 658.526 577.312 653.229C576.276 650.81 575.585 648.738 575.815 648.507C576.046 648.392 580.307 649.544 585.374 651.041C596.89 654.611 610.249 655.302 613.128 652.308C615.546 649.889 618.31 642.173 617.274 640.561C616.928 639.87 616.698 637.912 616.813 636.185C617.158 631.233 612.897 627.778 601.496 623.747C588.483 619.026 583.301 616.377 570.403 607.74L560.038 600.715L558.311 592.423C557.274 587.817 556.123 582.98 555.662 581.598C554.856 579.525 557.274 577.452 575.124 564.9C600.114 547.28 609.327 539.679 621.765 526.205L631.438 515.61L631.784 522.75C632.014 526.666 631.554 534.036 630.978 538.988ZM461.459 555.341C462.841 557.529 463.878 560.178 463.878 561.099C463.878 563.748 460.538 562.942 459.962 560.063C459.041 555.572 458.465 551.195 458.696 551.195C458.926 551.195 460.077 553.038 461.459 555.341ZM783.567 576.186C788.289 578.258 791.974 579.065 798.999 579.18C804.297 579.295 808.212 579.871 808.212 580.562C808.212 582.289 793.817 610.273 788.98 617.759C779.652 632.615 775.276 634.227 782.301 620.408C786.216 612.462 787.368 607.625 785.295 607.625C783.683 607.625 774.239 618.565 768.596 626.972C765.832 631.233 762.147 635.955 760.42 637.567L757.31 640.446L758.117 637.567C758.577 635.955 760.535 631.578 762.493 627.778C765.257 622.135 771.36 606.243 771.36 604.515C771.36 602.788 767.675 607.394 759.614 619.486C746.485 639.064 746.14 633.997 758.808 608.546C761.917 602.327 764.45 596.454 764.45 595.533C764.45 592.423 760.996 592.193 757.886 595.072L754.892 597.836L755.698 593.229C756.159 590.696 759.153 583.21 762.262 576.646L767.905 564.784L772.627 569.045C775.276 571.349 780.228 574.573 783.567 576.186ZM469.751 572.155C475.279 583.095 479.885 589.084 484.031 590.811C488.753 592.769 489.098 594.036 485.413 596.454C476.776 602.097 425.299 611.771 416.086 609.467C411.249 608.201 414.128 606.473 421.959 605.897C425.644 605.552 430.366 604.976 432.208 604.631C436.584 603.709 444.761 599.563 443.84 598.757C443.494 598.412 437.16 598.757 429.675 599.448C422.189 600.139 413.322 601.061 410.097 601.291C406.757 601.636 403.994 601.521 403.994 601.061C403.994 599.103 410.903 596.915 421.498 595.418C432.899 593.92 438.542 592.078 439.348 589.544C439.694 588.623 435.778 588.393 424.492 588.738C416.086 588.969 407.794 589.429 406.066 589.775C403.878 590.12 402.842 589.775 402.842 588.738C402.842 586.896 403.648 586.665 421.613 582.75C436.239 579.64 452.016 574.458 460.423 570.082C463.302 568.585 465.951 567.433 466.411 567.318C466.872 567.318 468.369 569.506 469.751 572.155ZM823.644 581.944C824.565 594.727 827.444 615.916 829.632 627.202C836.657 661.751 859.459 706.203 881.225 727.969C886.407 733.036 902.184 746.049 916.464 756.644C949.17 781.174 960.111 790.041 987.174 813.649C1011.93 835.185 1015.5 839.446 1015.5 846.701C1015.5 871.691 1000.07 886.201 979.573 880.443C974.045 878.946 945.485 856.72 918.883 833.227C913.47 828.505 900.917 817.91 891.129 809.734C833.778 761.942 814.431 743.055 793.932 714.265C781.955 697.566 759.614 658.757 755.122 647.125C754.086 644.361 754.201 644.246 757.426 644.822C760.189 645.398 761.917 644.822 765.832 641.828C770.439 638.258 771.015 638.143 774.124 639.64C777.003 641.137 777.694 641.022 780.458 639.064C788.289 633.306 801.072 612.462 809.939 590.811C814.431 579.871 819.613 571.925 822.147 571.925C822.607 571.925 823.298 576.416 823.644 581.944ZM751.783 580.216C748.558 587.587 744.873 600.37 744.873 603.824C744.873 605.206 745.679 607.049 746.6 608.085C748.097 609.582 747.982 610.849 745.218 619.026L742.224 628.354L739.806 626.166C736.121 622.826 732.781 621.444 728.405 621.444C725.18 621.444 723.568 622.365 720.343 626.051C713.664 633.421 708.367 645.283 714.01 640.331C716.428 638.143 716.428 638.143 715.737 641.022C715.276 642.634 713.434 651.617 711.591 661.175C709.633 670.618 705.718 690.311 702.839 704.937C697.426 732.575 688.328 770.003 680.613 796.49C678.079 805.012 672.897 823.438 668.981 837.373C659.538 871 654.471 887.008 642.724 921.441C630.747 956.105 630.632 956.45 627.062 959.79C623.723 962.899 612.091 965.087 604.145 964.166C596.314 963.13 586.18 959.329 579.846 955.068C570.633 948.85 569.827 940.673 576.737 920.865C582.379 904.858 595.047 862.593 599.078 846.355C603.915 827.123 611.976 788.659 618.195 755.032C630.056 690.887 640.191 636.415 643.991 616.838C646.179 605.782 648.598 592.654 649.404 587.702C650.786 578.489 652.398 576.186 655.507 578.834C658.501 581.253 678.309 582.289 698.002 581.137C717.81 579.986 727.944 578.719 743.721 575.495C749.134 574.458 753.74 573.652 753.971 573.882C754.201 573.997 753.165 576.876 751.783 580.216ZM299.427 588.162C319.234 600.945 361.499 611.08 394.781 611.08C405.26 611.08 405.721 611.195 408.139 614.189C410.443 617.183 411.134 617.298 419.08 617.183C423.801 617.068 431.748 616.262 436.815 615.341C441.882 614.419 446.488 614.074 446.949 614.534C447.525 614.995 448.676 620.523 449.598 626.742C453.974 657.26 455.125 663.593 458.811 680.522C465.951 713.459 472.976 735.915 484.146 761.827C497.16 791.538 509.597 813.304 541.842 862.824C561.996 893.572 567.524 903.015 567.524 906.815C567.524 908.082 566.487 911.422 565.22 914.301C563.954 917.18 562.226 922.823 561.42 926.854C560.153 933.303 559.577 934.339 556.007 936.182C552.898 937.794 550.134 938.14 543.34 937.794C524.683 936.873 517.889 930.769 494.165 894.608C465.145 850.271 446.258 817.45 421.498 768.276C410.327 746.165 405.721 735.339 398.235 714.15C388.216 685.705 382.228 672.461 375.088 662.327C367.487 651.847 358.044 648.622 351.825 654.38C347.449 658.411 345.376 663.709 340.079 683.056C320.962 754.571 317.161 764.59 255.78 907.622C247.834 925.932 239.888 945.395 237.93 950.807C236.087 956.22 233.669 961.517 232.633 962.554C229.178 966.124 216.855 968.427 204.648 967.851C195.32 967.391 192.787 966.815 187.604 964.051C184.265 962.208 180.004 958.984 178.161 956.911C175.397 953.686 174.821 952.074 174.821 947.007C174.821 932.612 182.192 911.537 201.309 870.77C203.957 865.012 207.873 856.49 209.946 851.768C212.019 847.046 218.237 833.227 223.765 821.25C248.87 766.548 254.744 745.358 266.26 668.661C273.861 617.874 279.043 594.842 285.607 581.944L287.795 577.567L290.214 580.677C291.596 582.404 295.741 585.744 299.427 588.162ZM548.061 588.853C549.328 591.848 550.134 595.418 549.789 596.8C548.176 603.018 534.702 611.08 525.605 611.08C519.846 611.08 511.555 607.855 507.409 603.94L503.609 600.485L512.246 597.951C516.967 596.569 526.065 592.769 532.399 589.544C538.733 586.32 544.376 583.671 544.837 583.556C545.297 583.556 546.794 585.859 548.061 588.853ZM558.541 608.201C564.299 615.571 585.143 627.433 600.345 631.924C605.872 633.536 606.563 633.997 603.684 633.997C601.727 634.112 597.581 633.306 594.471 632.385C591.362 631.348 586.525 630.081 583.646 629.506C580.767 628.93 577.427 628.124 576.161 627.663C574.088 626.972 574.203 627.202 576.737 630.081C580.076 633.767 589.635 638.373 602.072 642.288L610.709 645.052L604.836 645.398C601.151 645.628 594.356 644.592 587.331 642.749C580.537 641.137 572.476 639.87 567.984 639.87H560.153L565.22 645.052C567.984 647.816 569.942 650.58 569.481 650.926C567.408 653.114 531.939 622.826 533.551 620.293C533.896 619.717 536.315 618.565 538.963 617.759C541.612 616.953 546.219 613.959 549.558 610.849C552.783 607.855 555.662 605.437 555.892 605.321C556.123 605.321 557.274 606.588 558.541 608.201ZM1047.63 863.745C1052.36 866.969 1059.27 872.382 1062.95 875.837C1068.36 880.789 1069.63 882.631 1069.63 885.626C1069.63 890.232 1065.71 898.754 1063.18 899.791C1062.14 900.136 1058.69 899.33 1055.35 897.948C1047.17 894.608 1041.88 894.723 1038.08 898.639C1035.08 901.633 1035.08 901.864 1035.31 916.144C1035.54 933.994 1034.85 935.721 1019.65 956.911C1005.71 976.488 994.199 989.732 990.629 990.653C985.101 992.035 984.87 989.962 988.325 974.761C995.696 942.861 996.156 939.406 996.271 920.289C996.387 903.591 995.811 897.833 992.932 890.462C992.586 889.541 994.429 888.505 998.114 887.583C1001.34 886.777 1006.75 884.129 1010.21 881.595C1017.35 876.413 1021.95 868.697 1023.1 859.254C1024.26 850.386 1025.06 849.925 1032.66 854.186C1036.23 856.144 1043.03 860.52 1047.63 863.745ZM544.721 949.656C548.407 949.656 553.359 948.85 555.662 947.928C561.074 945.625 561.765 945.74 561.765 948.85C561.765 952.765 556.583 962.554 551.401 968.427C541.267 979.828 517.889 995.145 499.578 1002.28C490.595 1005.85 487.141 1006.55 480.116 1006.66C474.703 1006.66 471.363 1006.2 471.133 1005.39C470.903 1004.59 474.588 1002.17 479.425 999.866C504.415 988.005 516.046 976.488 523.071 956.681C524.798 951.959 526.411 947.813 526.641 947.352C526.987 946.777 529.635 947.122 532.629 948.043C535.509 948.965 541.036 949.656 544.721 949.656ZM586.986 970.615C592.514 972.803 595.508 973.264 607.139 973.149H620.728L619.922 982.938C619.462 988.465 618.425 997.793 617.619 1003.78C616.237 1013.11 615.546 1015.07 613.013 1017.26C607.024 1022.44 600.921 1021.63 600.921 1015.76C600.921 1012.42 597.696 1003.9 595.393 1001.13C591.247 996.411 583.761 1001.13 574.894 1014.26C572.591 1017.6 569.366 1020.48 566.142 1021.98C561.305 1024.4 559.347 1024.51 532.86 1024.51C508.445 1024.51 504.184 1024.28 500.73 1022.44C498.311 1021.29 496.584 1019.44 496.353 1018.06C496.008 1015.99 498.426 1014.38 513.628 1006.89C538.848 994.569 554.625 982.016 566.372 964.972L570.403 959.099L575.355 963.59C578.118 966.009 583.301 969.233 586.986 970.615ZM180.004 970.27C188.641 975.797 198.199 977.755 212.249 976.949L224.341 976.258L223.65 985.126C222.498 1002.4 220.771 1012.42 217.892 1018.41C215.473 1023.47 214.207 1024.63 209.831 1026.35C203.151 1028.89 198.89 1027.62 197.508 1022.78C192.902 1006.2 189.792 1000.33 185.992 1000.33C181.155 1000.33 175.397 1005.62 171.021 1013.8C163.996 1027.16 161.808 1029 151.789 1030.5C142.23 1031.88 93.6321 1030.96 87.874 1029.35C85.1101 1028.54 84.5343 1027.74 84.6495 1025.55C85.1101 1021.4 92.3653 1015.53 106.415 1007.93C139.467 990.078 154.438 979.483 165.148 966.469L170.56 959.905L172.633 963.475C173.9 965.433 177.125 968.427 180.004 970.27Z" fill="black"/>
</g>
<defs>
<clipPath id="clip0_138_25">
<rect width="1080" height="1080" fill="white"/>
</clipPath>
</defs>
</svg>
