<svg width="1080" height="1080" viewBox="0 0 1080 1080" fill="none" xmlns="http://www.w3.org/2000/svg">
<g clip-path="url(#clip0_139_181)">
<rect width="1080" height="1080" fill="white"/>
<path d="M374 357V33" stroke="black" stroke-width="0.833333"/>
<path d="M374 357L644 141" stroke="black" stroke-width="0.833333"/>
<path d="M374 357H726.29" stroke="black" stroke-width="0.833333"/>
<path d="M374 357L641 569" stroke="black" stroke-width="0.833333"/>
<path d="M374 357V677.5" stroke="black" stroke-width="0.833333"/>
<path d="M105 141L103 569.5" stroke="black" stroke-width="0.833333"/>
<path d="M644 141L641 569.5" stroke="black" stroke-width="0.833333"/>
<path d="M374 357L103 569" stroke="black" stroke-width="0.833333"/>
<path d="M374 357H14" stroke="black" stroke-width="0.833333"/>
<path d="M374 357L104 141" stroke="black" stroke-width="0.833333"/>
<path d="M644 141L104 140.802" stroke="black" stroke-width="0.833333"/>
<path d="M641 569.082L102.742 569.082" stroke="black" stroke-width="0.833333"/>
<path d="M726 357L374 677" stroke="black" stroke-width="0.833333"/>
<path d="M373.5 33.5L14.0002 356.5" stroke="black" stroke-width="0.833333"/>
<path d="M726 357L373.5 33" stroke="black" stroke-width="0.833333"/>
<path d="M374 677L14 357" stroke="black" stroke-width="0.833333"/>
<path d="M374 380C387.807 380 399 368.807 399 355C399 341.193 387.807 330 374 330C360.193 330 349 341.193 349 355C349 368.807 360.193 380 374 380Z" fill="#FFFF00" stroke="black" stroke-width="1.66667"/>
<path d="M758.23 291C755.789 291.488 750.32 293.148 746.121 294.516C738.308 297.152 738.308 297.152 731.57 295.492C718.875 292.367 709.109 296.469 703.933 307.113C701.101 313.07 700.711 324.789 703.347 329.77C705.301 333.676 710.476 338.852 712.429 338.852C715.066 338.852 710.379 359.652 704.519 373.91C702.859 377.914 701.492 382.113 701.492 383.285C701.492 386.801 704.519 389.633 710.281 391.488C717.508 393.832 718.289 395.98 717.508 411.312L716.922 422.641L721.121 425.375C723.465 426.84 727.176 428.598 729.226 429.184C733.426 430.453 733.23 430.746 727.469 432.602C722.781 434.164 716.629 434.066 714.871 432.504C713.797 431.527 713.992 430.648 715.457 427.523C717.703 423.031 717.019 421.859 710.086 418.344C703.836 415.219 696.707 413.852 691.238 414.926C688.797 415.414 686.844 415.609 686.844 415.414C686.844 415.219 687.722 412.875 688.797 410.141C691.238 403.891 691.238 400.18 688.797 397.934C687.137 396.371 686.551 396.371 683.719 397.543C679.031 399.496 667.019 411.312 660.183 420.688C655.984 426.645 651.98 434.262 646.316 447.152C640.847 459.457 637.625 465.609 636.16 466.391C630.984 469.027 629.129 471.664 611.16 501.449C596.609 525.57 588.211 542.367 584.011 555.648C577.273 576.547 575.906 593.441 579.324 609.848C582.84 626.058 587.722 634.555 602.664 649.594C612.136 659.164 612.82 660.14 611.551 661.898C610.769 662.875 608.133 666.488 605.594 669.808C597.195 680.941 595.633 687.484 591.14 730.844C589.578 746.469 587.82 761.898 587.234 765.121C586.746 768.344 586.258 771.078 586.258 771.176C586.258 772.445 493.582 770.394 475.711 768.734C474.148 768.539 473.953 766.976 473.953 751.156C473.953 741.683 474.344 733.383 474.734 732.894C475.125 732.308 477.176 730.551 479.422 728.988C484.402 725.375 487.332 721.859 491.922 714.34C494.265 710.433 496.609 707.797 499.051 706.527C503.836 703.988 504.324 701.058 500.613 697.64L497.879 695.199L506.082 687.484C513.211 680.844 514.187 679.574 513.113 678.305C511.16 675.961 509.402 676.351 506.472 679.769C502.566 684.164 489.676 695.297 488.504 695.297C487.918 695.297 488.406 694.125 489.48 692.562C490.652 691.098 493.094 687.68 494.851 685.043C496.609 682.308 499.441 678.89 501.199 677.328C504.519 674.203 505.008 671.762 502.761 669.906C499.636 667.269 497.781 669.223 483.426 690.707L480.301 695.492L459.5 695.101C441.824 694.808 438.601 695.004 437.82 696.273C436.062 699.008 436.746 701.644 439.773 703.5C444.168 706.039 446.512 708.871 449.051 714.535C451.004 718.93 455.789 724.301 463.601 731.137C466.14 733.285 466.14 733.285 466.14 749.691C466.14 758.676 465.75 766.683 465.359 767.367C464.871 768.148 460.672 768.93 454.324 769.515C441.726 770.687 374.051 770.785 374.734 769.711C375.027 769.223 376.101 761.898 377.273 753.305C381.961 717.562 381.961 717.269 383.719 716.293C392.019 711.41 397.488 701.351 394.363 696.566C392.898 694.418 392.41 694.32 377.957 694.223C369.851 694.125 362.039 693.832 360.769 693.441C358.523 692.855 358.523 692.758 363.211 686.508C369.07 678.793 385.672 665.609 409.695 649.691C427.566 637.777 430.008 635.336 426.785 632.113C424.637 629.965 411.062 628.793 401.004 629.965C385.867 631.625 373.465 637.582 361.258 648.91C358.621 651.351 356.375 653.207 356.179 653.109C356.082 652.914 355.203 647.738 354.324 641.586C350.32 613.949 345.926 597.64 342.703 597.64C338.308 597.64 332.156 622.348 330.691 645.199C330.398 650.765 329.91 655.258 329.617 655.258C329.422 655.258 325.222 652.426 320.242 649.008C309.304 641.39 303.738 638.558 294.265 635.726C284.207 632.699 273.66 632.113 266.726 634.164C260.769 635.922 258.621 637.68 259.597 640.316C259.89 641.293 266.14 645.98 273.465 650.863C287.527 660.14 307.351 674.691 317.215 682.992C320.437 685.726 324.832 689.34 326.98 691.098L330.886 694.223L318.875 694.027C307.254 693.832 306.765 693.93 304.91 696.176C300.711 701.254 303.836 709.945 310.769 712.875C312.722 713.656 313.992 715.121 314.578 717.172C317.215 725.668 325.711 768.734 324.929 769.418C324.734 769.711 312.625 769.906 298.172 770.004C277.273 770.199 271.414 770.492 269.754 771.664C267.703 772.933 267.703 773.617 267.801 788.558C267.898 805.844 267.801 805.551 275.418 809.652L278.347 811.215L279.031 846.273C279.422 865.609 280.105 895.394 280.594 912.582C281.082 929.769 281.961 960.531 282.547 980.941C283.133 1001.55 284.011 1019.52 284.597 1021.27C286.453 1027.04 295.535 1028.79 298.66 1024.01C300.32 1021.37 300.808 1004.09 302.078 905.746C302.664 863.851 303.347 825.18 303.64 819.809L304.226 810.043L324.734 810.336C336.16 810.531 346.316 811.117 347.586 811.508C349.636 812.289 349.734 812.777 350.32 835.629C351.687 887.289 357.058 1018.25 357.84 1021.57C359.304 1027.62 367.898 1029.38 371.511 1024.4C373.465 1021.76 373.562 1020.39 376.297 887.68C376.785 861.605 377.566 833.969 377.859 826.156L378.445 811.996H465.554C513.406 811.898 558.914 811.605 566.629 811.117L580.594 810.336L579.91 817.562C577.957 838.754 571.804 885.336 569.07 898.91C568.289 903.207 565.847 911.898 563.699 918.246C561.551 924.594 559.89 930.746 560.086 931.918C560.867 937.191 575.125 942.172 597.586 945.004L610.476 946.566L611.648 950.18C612.332 952.328 612.722 956.82 612.429 961.019C611.355 980.551 595.535 996.664 567.41 1006.72C544.851 1014.83 531.961 1019.81 527.761 1021.96C522.195 1024.69 518.582 1028.79 516.824 1033.87C515.75 1037.19 515.847 1037.58 518.191 1039.63C521.804 1042.76 529.715 1043.44 559.89 1043.34C595.633 1043.15 613.406 1040.8 622.488 1035.04C624.929 1033.48 627.957 1032.21 629.129 1032.21C630.301 1032.21 633.328 1034.07 635.867 1036.41C642.117 1042.17 644.558 1042.95 654.91 1042.95C666.238 1042.95 669.656 1041.39 673.172 1034.55C675.515 1030.06 675.613 1028.89 675.906 1009.65L676.297 989.535L681.277 990.316C708.328 994.32 744.558 994.027 769.558 989.633C774.832 988.754 756.797 992.351 758.945 991.179C762.754 989.226 774.433 986.668 773.945 1000.63C773.066 1023 701.492 1039.34 713.406 1042.95C709.5 1057.5 781.383 1059.16 792.5 1043.34C802.363 1038.46 802.809 1038.85 811.5 1042.95C821.07 1047.45 805.344 1046.33 840.5 1047.5C863.254 1048.18 829.492 1035.63 837.5 1021.96C829.047 1013 831.242 1019.37 823.5 1004.5C824.672 985 816.113 987.867 835.183 975.5C840.5 969.32 861.062 958.969 862.039 956.527C862.332 955.746 864.773 953.988 867.508 952.621C870.34 951.156 873.562 948.519 875.222 946.273C878.347 941.879 878.25 942.465 885.183 909.164C887.918 895.98 893.387 869.711 897.39 850.668C905.691 811.215 911.746 778.598 913.504 763.656C914.871 752.035 913.406 754.281 929.519 739.828C950.906 720.687 962.918 706.723 979.226 682.211C999.539 651.742 1009.21 630.648 1023.76 585.238C1029.03 568.734 1034.5 545.785 1034.5 540.023C1034.5 535.824 1032.84 534.555 1029.81 536.703C1027.86 537.972 1024.25 548.226 1018 569.808C1008.33 603.598 1005.2 612.582 996.512 631.82C979.324 669.711 954.812 703.988 928.055 727.426C917.996 736.215 918.387 736.898 920.73 714.047C921.805 703.793 922.293 694.125 922 687.289L921.414 676.644L926.98 672.543C938.504 664.047 947.879 652.426 953.933 639.242C969.363 605.355 967.117 559.066 947.683 512.777C936.844 486.898 915.75 459.457 897.195 447.152C881.18 436.41 868.484 431.723 842.605 426.742C812.625 421.078 806.863 419.418 808.426 416.879C808.719 416.586 812.527 416.098 817.019 415.805C826.394 415.316 830.105 413.559 834.109 407.699C836.453 404.281 836.746 402.816 836.746 396.371C836.746 389.535 836.453 388.363 832.449 380.551L828.055 372.25L832.058 366.293C838.211 357.211 838.699 349.496 833.816 339.828C831.277 334.848 828.836 332.406 822.586 328.598C816.043 324.691 812.137 320.492 808.426 313.852C802.273 302.816 795.34 297.152 782.547 292.758C776.199 290.609 764.383 289.73 758.23 291ZM784.207 303.793C790.652 306.918 794.754 311.215 799.734 319.809C804.422 328.207 807.058 331.039 813.797 334.945C825.027 341.488 828.445 347.25 827.078 356.918C826.492 360.531 825.613 361.898 821.512 365.219C815.75 370.102 815.555 372.055 820.047 378.598C827.469 389.438 829.226 396.176 826.004 402.328C824.246 405.746 820.437 406.918 809.89 407.406L802.664 407.699L800.418 400.863C799.246 397.055 798.269 393.148 798.269 392.074C798.172 391 799.93 388.559 801.98 386.703C806.57 382.504 808.426 376.84 807.449 369.516C806.277 359.652 799.148 356.039 779.617 355.062C757.742 353.988 748.953 350.961 743.875 343.051C739.09 335.531 737.039 334.359 727.078 333.676C717.019 333.09 714.773 332.016 712.137 326.938C708.426 319.711 710.379 309.359 716.336 305.648C720.34 303.109 726.883 303.5 733.426 306.723L737.82 308.871L744.851 305.355C759.012 298.129 771.609 297.641 784.207 303.793ZM734.109 344.125C735.769 345.883 738.797 349.398 740.75 351.84C743.484 355.062 747 357.504 754.129 361.215C761.941 365.219 764.09 366.781 765.359 369.516C767.215 373.52 767.41 379.867 765.75 382.016C765.066 382.895 760.867 384.848 756.375 386.215C747.683 389.047 740.847 393.539 738.797 397.738C737.625 400.18 737.039 400.473 733.426 400.18C729.422 399.887 729.226 399.691 726.492 393.832C723.367 387.094 721.121 385.727 713.601 385.727C710.379 385.727 709.304 385.336 708.816 383.871C708.523 382.895 710.183 376.742 712.527 370.004C714.871 363.363 717.605 354.574 718.484 350.57C719.461 346.566 720.34 342.66 720.633 341.977C720.828 341.293 722.781 340.805 726.004 340.805C730.398 340.805 731.375 341.195 734.109 344.125ZM798.269 369.223C798.758 370.004 799.148 372.445 799.148 374.691C799.148 377.914 798.465 379.574 796.121 382.211C794.558 384.066 792.312 385.922 791.238 386.215C790.262 386.605 789.383 387.484 789.383 388.168C789.383 390.414 799.051 419.32 801.101 423.422C803.445 427.816 803.543 430.551 801.687 434.848C798.269 443.051 788.699 448.227 775.515 449.008C767.703 449.398 766.336 449.203 760.769 446.859C753.836 443.93 751.59 441.195 750.711 434.359C750.027 429.281 750.515 428.793 758.621 426.352C761.746 425.375 767.605 423.031 771.414 421.273C781.863 416.293 782.058 415.707 780.203 392.953C778.445 371.957 778.445 372.934 779.519 371.273C781.765 367.66 796.219 366.098 798.269 369.223ZM685.867 405.16C684.793 408.969 683.523 411.215 676.883 421.371C673.562 426.254 671.512 430.258 672.195 430.453C672.781 430.648 675.515 429.281 678.347 427.328C684.988 422.738 690.652 420.883 697.781 420.883C703.543 420.883 707.84 422.348 710.183 425.18C712.234 427.621 708.328 428.695 697.879 428.402C688.504 428.207 688.211 428.305 683.133 431.527C680.398 433.285 678.054 434.848 678.054 435.043C678.054 435.238 677.762 436.02 677.469 436.898C676.492 439.34 679.422 438.852 685.183 435.531C689.09 433.383 691.629 432.602 695.242 432.699C701.101 432.699 708.719 435.434 709.109 437.68C709.5 439.828 706.961 441.098 699.539 442.27C689.09 443.93 684.5 448.617 674.051 467.855C670.73 474.008 667.703 479.379 667.312 479.867C666.531 480.746 653.445 474.594 647.586 470.59L644.168 468.246L647.781 459.457C656.765 437.387 669.363 415.902 678.347 407.406C684.597 401.547 687.137 400.766 685.867 405.16ZM830.203 432.504C857.058 437.582 868.484 440.805 880.691 446.957C894.754 453.988 908.328 466.488 920.437 483.676C939.578 510.629 950.222 540.707 953.445 576.547C955.594 600.863 950.125 629.183 940.164 645.785C925.808 669.32 890.847 688.363 856.082 691.39C835.672 693.246 807.644 688.851 792.996 681.625C785.379 677.719 784.5 677.035 782.449 672.348C778.055 662.484 779.324 647.543 784.988 641.879L788.211 638.656L809.988 638.949C830.105 639.144 832.547 638.949 841.043 636.801C869.656 629.672 881.765 622.055 888.992 606.918C893.484 597.348 895.242 587.387 894.558 574.789C893.777 561.703 892.312 554.379 886.941 537.387C882.84 524.496 879.617 518.539 877.469 519.906C875.711 520.98 876.004 522.933 880.301 542.758C886.551 571.469 886.551 588.851 880.203 605.648C876.101 616.586 864.383 624.105 844.558 628.5C838.113 629.867 832.547 630.16 812.918 630.062C791.043 629.867 788.797 630.062 784.695 631.82C782.351 632.894 779.812 633.773 779.129 633.773C778.445 633.773 773.172 632.015 767.41 629.867C754.519 624.984 745.535 623.031 736.16 623.031C728.445 623.031 715.554 625.18 712.234 626.937C711.062 627.621 709.988 627.914 709.793 627.719C709.207 627.133 701.785 582.797 700.027 569.808C699.246 563.363 698.269 551.156 697.879 542.66C697.488 532.113 696.902 527.035 696.023 526.254C693.387 524.105 692.41 529.379 691.629 550.668C689.969 597.347 686.551 614.242 675.808 629.379C670.926 636.215 669.558 636.996 658.133 639.144C652.078 640.219 645.828 642.367 637.625 646.176C631.082 649.105 624.148 651.84 622.195 652.035C612.625 653.402 598.367 637.777 592.117 618.832C582.449 590.023 587.429 562.484 610.183 519.027C621.804 496.664 631.765 480.844 636.844 476.254C638.797 474.496 638.992 474.594 647.097 479.379C651.59 482.113 655.594 484.359 655.984 484.359C656.277 484.359 658.523 485.238 660.965 486.41C664.969 488.266 665.359 488.754 665.359 492.074C665.359 498.129 662.722 511.41 657.449 532.699L652.273 553.207V570.785C652.176 588.558 653.347 596.957 656.082 597.933C658.914 599.105 659.402 597.152 658.523 587.875C657.058 572.836 659.597 553.695 665.945 529.672C671.414 509.262 673.172 500.375 673.172 492.562C673.172 484.75 673.172 484.652 679.617 472.543C690.75 451.742 693.387 449.105 704.91 447.25C709.695 446.469 712.527 445.492 714.187 443.832C716.043 442.172 719.265 441.098 727.273 439.535C733.035 438.461 738.797 436.898 740.066 436.117C742.117 434.75 742.312 434.848 743.387 438.461C745.144 444.418 748.66 447.738 756.472 450.961C768.387 455.941 779.715 456.039 792.508 451.156C799.93 448.422 807.937 441.098 810.769 434.555C811.941 431.918 813.308 429.672 813.894 429.672C814.48 429.672 821.805 430.941 830.203 432.504ZM701.004 627.621C701.687 632.308 701.492 632.992 698.562 637.094L695.437 641.39L690.847 640.023C688.406 639.242 684.89 638.363 683.23 637.973C681.472 637.68 680.008 637.191 680.008 636.996C680.008 636.801 681.277 634.75 682.742 632.504C689.676 622.25 695.437 608.383 695.73 601.644C695.828 598.91 699.929 619.027 701.004 627.621ZM347.39 650.863C348.172 657.797 349.051 669.906 349.344 677.719L350.027 691.879L347.976 689.437C344.363 684.945 339.187 673.422 337.722 666.488C335.281 654.769 336.453 633.285 340.359 619.711L341.433 615.707L343.679 626.937C344.949 633.09 346.609 643.832 347.39 650.863ZM750.027 631.723C758.914 633.578 773.758 639.73 773.758 641.683C773.758 642.172 772.879 645.687 771.805 649.594C770.242 655.258 770.047 657.601 770.73 662.484C771.219 665.805 771.902 669.223 772.293 670.101C773.269 672.543 771.023 672.348 756.668 669.418C748.66 667.758 739.48 666.683 727.762 666.098C714.48 665.414 709.793 664.828 707.254 663.558L703.933 661.801L707.937 660.043C710.183 659.164 714.578 658.09 717.703 657.699C724.637 657.015 736.258 655.355 739.383 654.672C740.652 654.476 741.336 653.793 741.043 653.305C740.652 652.719 733.035 652.328 722.39 652.328C705.691 652.328 704.324 652.23 704.617 650.57C705.008 648.129 715.652 644.906 729.812 642.855C736.258 641.976 742.41 640.707 743.289 640.023C747.976 636.605 717.703 637.094 707.351 640.609C704.031 641.781 701.004 642.465 700.808 642.172C698.367 639.73 710.769 633.383 721.512 631.43C732.351 629.476 739.578 629.574 750.027 631.723ZM417.41 636.117C416.726 636.898 411.746 640.512 406.277 644.223C383.328 659.457 362.527 677.328 356.961 686.508L355.008 689.633L354.324 686.508C353.933 684.848 353.933 680.453 354.324 676.742C355.203 667.758 359.109 659.75 364.969 654.574C374.636 646.078 394.754 637.973 411.746 635.824C415.066 635.336 417.996 634.945 418.191 634.848C418.387 634.848 417.996 635.336 417.41 636.117ZM290.066 643.148C303.836 647.64 313.601 653.988 324.246 665.414C332.547 674.203 341.629 690.414 338.308 690.414C336.941 690.414 323.758 681.039 308.23 668.832C292.703 656.723 284.695 650.961 275.027 645.101C271.609 643.148 268.582 641 268.289 640.414C267.215 638.656 282.058 640.512 290.066 643.148ZM680.984 645.687C683.719 646.273 689.187 648.422 692.996 650.277L700.027 653.793L699.734 658.871C699.441 663.265 699.734 664.144 701.687 665.316C705.105 667.562 715.262 669.613 730.301 671.371C744.461 672.933 751.297 674.301 751.297 675.57C751.297 675.961 746.023 682.113 739.676 689.144C717.801 713.265 709.402 724.301 706.277 732.406C699.246 750.961 693.679 791.098 693.679 823.617C693.679 832.699 694.363 851.644 695.242 865.609C697.488 901.644 696.219 917.074 690.652 924.887C685.086 932.797 649.051 938.461 616.433 936.508C594.363 935.141 571.609 930.746 571.609 927.719C571.609 927.23 572.683 923.129 573.953 918.734C575.222 914.242 576.98 906.918 577.859 902.328C580.301 888.754 589.871 814.633 592.117 791.976C595.73 754.086 601.394 711.703 605.203 693.734C609.695 672.836 615.554 665.707 636.355 655.844C648.465 650.18 658.426 646.176 662.918 645.199C666.922 644.32 676.101 644.515 680.984 645.687ZM771.219 680.551C774.441 681.137 777.957 682.406 779.031 683.48C781.765 685.922 785.867 687.875 796.414 691.976C808.816 696.762 820.926 699.203 836.258 699.887C860.867 700.961 882.254 696.957 905.984 686.801C910.183 685.043 913.894 683.773 914.285 684.066C917.019 686.898 905.203 771.566 895.73 816.391C894.656 821.469 891.238 838.656 888.015 854.476C878.738 900.57 872.39 930.941 871.316 934.262C869.168 940.902 865.066 944.223 848.953 952.133C839.187 957.016 832.547 959.457 831.765 958.676C831.472 958.383 833.523 953.695 836.258 948.129C847.195 926.351 865.262 882.601 868.484 869.906C870.535 861.898 870.34 859.359 867.41 859.359C865.164 859.359 862.332 864.633 856.472 880.355C847.488 904.184 829.031 944.516 822.488 954.476C817.605 961.898 813.797 964.34 798.66 970.101C777.664 977.914 758.426 981.625 731.277 982.992C717.312 983.676 695.73 981.723 677.566 978.012C662.918 975.082 658.523 973.422 658.523 970.98C658.523 969.32 665.066 945.199 665.554 944.808C665.75 944.711 669.558 943.832 674.148 942.855C692.703 939.047 700.125 933.871 703.738 922.348C705.691 916 705.887 913.559 705.887 890.609C705.887 874.789 705.398 861.117 704.422 853.012C702.664 837.484 702.566 804.184 704.324 790.023C706.179 774.691 711.062 748.422 713.406 741.195C716.238 732.504 720.047 725.18 725.125 718.637C732.449 709.164 762.429 678.793 763.992 679.183C764.773 679.379 768.094 680.062 771.219 680.551ZM386.16 701.84C388.113 703.793 386.062 706.918 380.398 710.629L374.832 714.34L349.148 714.144L323.562 713.949L317.898 709.359C309.109 702.133 309.597 701.742 327.957 701.156C354.91 700.277 384.988 700.668 386.16 701.84ZM487.722 704.769C488.601 705.648 487.722 707.699 483.621 713.949C475.711 726.058 470.144 728.402 463.699 722.348C460.476 719.32 452.469 706.234 452.469 704.086C452.469 702.523 486.16 703.207 487.722 704.769ZM357.449 720.687H372.39V724.984C372.39 731.82 367.508 763.851 365.945 766.683C364.676 769.32 364.48 769.32 351.492 770.004C344.168 770.394 337.234 770.492 335.965 770.101C332.937 769.418 331.179 765.023 329.031 753.89C326.883 741.976 324.539 725.765 324.539 722.348V719.418L333.523 720.101C338.406 720.394 349.148 720.687 357.449 720.687ZM367.996 778.207C453.64 779.476 543.875 779.476 566.043 778.207C576.199 777.621 584.695 777.426 584.988 777.719C585.574 778.305 583.426 799.301 582.547 801.547C582.156 802.816 579.91 802.914 568.289 802.23C560.672 801.84 493.679 801.352 419.168 801.254C344.754 801.156 282.547 800.668 280.789 800.277L277.664 799.594V790.121C277.664 776.058 277.664 776.058 293.191 776.742C299.929 777.035 333.621 777.719 367.996 778.207ZM654.129 948.129C654.812 951.351 652.469 962.289 649.734 968.539C646.707 975.473 647.097 978.012 651.883 981.43C654.129 983.09 658.523 985.238 661.551 986.117L667.117 987.68L667.703 993.539C668.679 1002.72 668.387 1022.54 667.215 1026.64C665.847 1031.72 663.406 1033.87 658.133 1034.65C651.98 1035.63 649.539 1034.75 643.875 1029.77C635.574 1022.45 631.082 1022.15 616.824 1028.3C604.91 1033.29 586.844 1035.63 549.636 1036.7C531.375 1037.29 527.957 1037.19 526.98 1035.92C526.004 1034.85 526.101 1034.07 527.273 1032.41C529.422 1029.28 532.156 1028.11 553.738 1020.59C564.383 1016.98 576.394 1012.48 580.398 1010.82C608.133 999.008 621.316 980.746 621.414 954.379V946.371L636.355 945.98C644.461 945.883 651.687 945.59 652.371 945.492C652.957 945.394 653.738 946.566 654.129 948.129Z" fill="black"/>
</g>
<defs>
<clipPath id="clip0_139_181">
<rect width="1080" height="1080" fill="white"/>
</clipPath>
</defs>
</svg>
